<svg width="31" height="30" viewBox="0 0 31 30" fill="none" xmlns="http://www.w3.org/2000/svg">
<path d="M22.4259 11.9936L24.1984 11.8812L24.2079 11.8805C25.4711 11.7739 26.6049 11.1122 27.3189 10.0645L28.7202 8.00858C29.9399 6.21869 30.4124 4.05694 30.0503 1.92158C29.9785 1.50095 29.7656 1.11732 29.4466 0.833831C29.1269 0.551035 28.7205 0.385563 28.2942 0.364675C26.13 0.261145 24.0412 0.989627 22.4107 2.41507L20.5375 4.05275C19.583 4.88712 19.0619 6.09213 19.1074 7.35924C19.1077 7.36218 19.1077 7.36542 19.1079 7.36866L19.209 9.1417C19.2483 9.83288 18.9949 10.5149 18.515 11.0116L3.88103 26.0452C3.4893 26.4537 3.28695 27.0142 3.31158 27.6235C3.33875 28.2942 3.64651 28.9529 4.13493 29.3859C4.57616 29.777 5.18267 29.9998 5.78894 29.9998C5.85387 29.9998 5.91875 29.9972 5.98339 29.9919C6.59131 29.9434 7.12369 29.6755 7.48419 29.2349L20.6517 12.9078C21.0883 12.3705 21.7351 12.0373 22.4259 11.9936ZM19.9487 12.3388L6.7824 28.6645C6.58124 28.9104 6.27188 29.0618 5.9115 29.0906C5.48265 29.1248 5.04296 28.9821 4.73502 28.7092C4.42708 28.436 4.2328 28.0166 4.21554 27.5869C4.20081 27.2257 4.31383 26.9004 4.53155 26.6735L19.1644 11.6412C19.8204 10.9623 20.1656 10.0327 20.1122 9.09032L20.0112 7.32194C19.9769 6.33012 20.3855 5.3871 21.1328 4.73362L23.006 3.09594C24.4597 1.82518 26.3228 1.1763 28.2512 1.26793C28.4708 1.27853 28.6821 1.36456 28.8466 1.51052C29.0115 1.65697 29.1216 1.85522 29.1588 2.0726C29.4814 3.97633 29.0602 5.90339 27.9729 7.49895L26.5716 9.55505C26.0125 10.3754 25.1252 10.894 24.1363 10.9789L22.3686 11.0908C21.4268 11.1506 20.5452 11.605 19.9488 12.3388L19.9487 12.3388Z" fill="#003B95"/>
<path d="M29.3336 25.9309L19.5216 16.994C19.4329 16.9132 19.3158 16.871 19.196 16.8765C19.0761 16.8821 18.9634 16.935 18.8826 17.0237C18.8019 17.1124 18.7598 17.2295 18.7654 17.3494C18.771 17.4692 18.8239 17.5819 18.9126 17.6626L28.722 26.5975C28.9554 26.8132 29.0878 27.131 29.0949 27.4924C29.1034 27.9224 28.9347 28.3526 28.6436 28.6438C28.3526 28.9347 27.9231 29.1039 27.4922 29.0952C27.1309 29.088 26.813 28.9556 26.5996 28.7248L17.8563 19.1256C17.7755 19.0369 17.6628 18.9839 17.543 18.9783C17.4232 18.9727 17.306 19.0149 17.2173 19.0957C17.1287 19.1765 17.0757 19.2892 17.0702 19.409C17.0646 19.5289 17.1068 19.646 17.1876 19.7347L25.9331 29.3362C26.3175 29.7519 26.8649 29.9876 27.4746 29.9995C27.4905 29.9998 27.5062 30 27.522 30C28.1773 30 28.8326 29.7341 29.2831 29.2835C29.7448 28.8217 30.0125 28.1457 29.9991 27.4748C29.9872 26.865 29.7517 26.3177 29.3337 25.931L29.3336 25.9309ZM5.4569 11.9079C6.2073 12.5994 7.18441 12.9932 8.20466 13.0152L9.98064 13.0208C10.673 13.0228 11.3385 13.3167 11.8055 13.8257L12.5879 14.6844C12.6302 14.7311 12.6818 14.7683 12.7394 14.7938C12.797 14.8192 12.8593 14.8323 12.9223 14.8322C13.0349 14.8324 13.1435 14.7903 13.2266 14.7144C13.2706 14.6744 13.3062 14.6261 13.3315 14.5724C13.3568 14.5186 13.3712 14.4604 13.374 14.4011C13.3768 14.3417 13.3678 14.2824 13.3477 14.2265C13.3275 14.1707 13.2966 14.1193 13.2565 14.0754L12.473 13.2154C11.835 12.5199 10.9276 12.1194 9.98371 12.1162L8.2125 12.1106C7.42619 12.0907 6.6731 11.7895 6.09004 11.2615L0.943173 5.14304C0.917855 5.11316 0.904739 5.07483 0.906443 5.03571C0.908147 4.99658 0.924546 4.95954 0.952365 4.93198C0.991962 4.89214 1.03845 4.88643 1.06261 4.88643C1.08677 4.88643 1.13332 4.89214 1.1731 4.93198L5.85806 9.61717C6.3212 10.0803 7.07473 10.0803 7.53787 9.61693L8.08846 9.06658V9.06635L9.06602 8.08879C9.06602 8.08879 9.06619 8.08879 9.06619 8.08861L9.06643 8.08838L9.61678 7.53802C10.0799 7.07488 10.0799 6.32129 9.61678 5.85821L4.93182 1.17325C4.90264 1.14393 4.88626 1.10425 4.88626 1.06288C4.88626 1.02152 4.90264 0.981835 4.93182 0.952517C4.95939 0.924698 4.99643 0.908299 5.03556 0.906595C5.07468 0.904891 5.11301 0.918007 5.14289 0.943325L11.2614 6.09043C11.7894 6.67332 12.0908 7.42636 12.1107 8.21265L12.116 9.98409C12.1192 10.9278 12.52 11.8351 13.2165 12.4745L14.0547 13.238C14.0986 13.278 14.15 13.309 14.2059 13.3291C14.2617 13.3493 14.321 13.3583 14.3804 13.3555C14.4397 13.3527 14.4979 13.3383 14.5517 13.3131C14.6054 13.2878 14.6537 13.2522 14.6937 13.2083C14.7744 13.1196 14.8166 13.0024 14.811 12.8826C14.8054 12.7628 14.7524 12.6501 14.6638 12.5693L13.8269 11.807C13.3166 11.3389 13.0229 10.6732 13.0206 9.98109L13.0151 8.20511C13.0151 8.20181 13.0151 8.19862 13.0148 8.19538C12.9906 7.17841 12.5971 6.20502 11.9076 5.45699C11.8947 5.44287 11.8809 5.42959 11.8663 5.41722L5.725 0.251199C5.30057 -0.106059 4.68464 -0.0793667 4.29243 0.312893C3.87879 0.726542 3.87879 1.39928 4.29243 1.8127L8.97733 6.49783C9.03041 6.55101 9.06021 6.62307 9.06021 6.6982C9.06021 6.77333 9.03041 6.8454 8.97733 6.89858L8.74653 7.12921L3.525 1.90792C3.34847 1.73114 3.06215 1.73114 2.88562 1.90792C2.80083 1.99272 2.75319 2.10772 2.75319 2.22764C2.75319 2.34756 2.80083 2.46256 2.88562 2.54736L8.10708 7.76889L7.76874 8.107L2.54721 2.88571C2.46241 2.80094 2.34742 2.75332 2.22752 2.75332C2.10762 2.75332 1.99262 2.80094 1.90782 2.88571C1.73105 3.0623 1.73105 3.34862 1.90782 3.52516L7.12911 8.74668L6.89842 8.97749C6.84525 9.03054 6.7732 9.06033 6.69808 9.06033C6.62297 9.06033 6.55092 9.03054 6.49774 8.97749L1.81248 4.29259C1.6122 4.0923 1.34592 3.98182 1.06255 3.98182C0.779186 3.98182 0.512966 4.09236 0.3128 4.29259C-0.07946 4.68479 -0.105917 5.30072 0.251106 5.72539L5.4173 11.8664C5.42956 11.8812 5.44287 11.895 5.4569 11.9079Z" fill="#003B95"/>
</svg>
