<svg width="15" height="15" viewBox="0 0 15 15" fill="none" xmlns="http://www.w3.org/2000/svg">
<mask id="path-1-inside-1_993_2349" fill="white">
<path fill-rule="evenodd" clip-rule="evenodd" d="M0.9375 7.49962C0.9375 7.3753 0.986886 7.25607 1.07479 7.16816C1.1627 7.08025 1.28193 7.03087 1.40625 7.03087H12.4622L9.51188 4.08149C9.42386 3.99347 9.37441 3.87409 9.37441 3.74962C9.37441 3.62514 9.42386 3.50576 9.51188 3.41774C9.59989 3.32972 9.71927 3.28027 9.84375 3.28027C9.96823 3.28027 10.0876 3.32972 10.1756 3.41774L13.9256 7.16774C13.9693 7.21128 14.0039 7.26301 14.0275 7.31996C14.0512 7.37691 14.0633 7.43796 14.0633 7.49962C14.0633 7.56127 14.0512 7.62232 14.0275 7.67927C14.0039 7.73622 13.9693 7.78795 13.9256 7.83149L10.1756 11.5815C10.0876 11.6695 9.96823 11.719 9.84375 11.719C9.71927 11.719 9.59989 11.6695 9.51188 11.5815C9.42386 11.4935 9.37441 11.3741 9.37441 11.2496C9.37441 11.1251 9.42386 11.0058 9.51188 10.9177L12.4622 7.96837H1.40625C1.28193 7.96837 1.1627 7.91898 1.07479 7.83107C0.986886 7.74316 0.9375 7.62394 0.9375 7.49962Z"/>
</mask>
<path fill-rule="evenodd" clip-rule="evenodd" d="M0.9375 7.49962C0.9375 7.3753 0.986886 7.25607 1.07479 7.16816C1.1627 7.08025 1.28193 7.03087 1.40625 7.03087H12.4622L9.51188 4.08149C9.42386 3.99347 9.37441 3.87409 9.37441 3.74962C9.37441 3.62514 9.42386 3.50576 9.51188 3.41774C9.59989 3.32972 9.71927 3.28027 9.84375 3.28027C9.96823 3.28027 10.0876 3.32972 10.1756 3.41774L13.9256 7.16774C13.9693 7.21128 14.0039 7.26301 14.0275 7.31996C14.0512 7.37691 14.0633 7.43796 14.0633 7.49962C14.0633 7.56127 14.0512 7.62232 14.0275 7.67927C14.0039 7.73622 13.9693 7.78795 13.9256 7.83149L10.1756 11.5815C10.0876 11.6695 9.96823 11.719 9.84375 11.719C9.71927 11.719 9.59989 11.6695 9.51188 11.5815C9.42386 11.4935 9.37441 11.3741 9.37441 11.2496C9.37441 11.1251 9.42386 11.0058 9.51188 10.9177L12.4622 7.96837H1.40625C1.28193 7.96837 1.1627 7.91898 1.07479 7.83107C0.986886 7.74316 0.9375 7.62394 0.9375 7.49962Z" fill="white"/>
<path d="M0.9375 7.49962H-3.75599H0.9375ZM12.4622 7.03087V11.7244H23.7958L15.7805 3.71154L12.4622 7.03087ZM9.51188 4.08149L6.19308 7.40029L6.19361 7.40081L9.51188 4.08149ZM9.37441 3.74962L4.68092 3.74962L9.37441 3.74962ZM10.1756 3.41774L13.4944 0.0989444L10.1756 3.41774ZM13.9256 7.16774L10.6068 10.4865L10.611 10.4907L13.9256 7.16774ZM13.9256 7.83149L10.611 4.5085L10.6068 4.51269L13.9256 7.83149ZM10.1756 11.5815L13.4944 14.9003L10.1756 11.5815ZM9.84375 11.719V7.02547V11.719ZM9.51188 10.9177L6.19361 7.59842L6.19308 7.59894L9.51188 10.9177ZM12.4622 7.96837L15.7805 11.2877L23.7958 3.27488H12.4622V7.96837ZM5.63099 7.49962C5.63099 8.62009 5.18588 9.69467 4.39359 10.487L-2.244 3.84936C-3.21211 4.81747 -3.75599 6.1305 -3.75599 7.49962H5.63099ZM4.39359 10.487C3.60131 11.2792 2.52673 11.7244 1.40625 11.7244V2.33738C0.0371262 2.33738 -1.2759 2.88127 -2.244 3.84936L4.39359 10.487ZM1.40625 11.7244H12.4622V2.33738H1.40625V11.7244ZM15.7805 3.71154L12.8301 0.762167L6.19361 7.40081L9.14392 10.3502L15.7805 3.71154ZM12.8307 0.762695C13.6229 1.55488 14.0679 2.62931 14.0679 3.74962L4.68092 3.74962C4.68092 5.11887 5.22485 6.43206 6.19308 7.40029L12.8307 0.762695ZM14.0679 3.74962C14.0679 4.86992 13.6229 5.94435 12.8307 6.73654L6.19308 0.0989444C5.22485 1.06717 4.68092 2.38036 4.68092 3.74962L14.0679 3.74962ZM12.8307 6.73654C12.0385 7.52872 10.9641 7.97376 9.84375 7.97376V-1.41321C8.47449 -1.41321 7.1613 -0.869277 6.19308 0.0989444L12.8307 6.73654ZM9.84375 7.97376C8.72344 7.97376 7.64901 7.52872 6.85683 6.73654L13.4944 0.0989444C12.5262 -0.869276 11.213 -1.41321 9.84375 -1.41321V7.97376ZM6.85683 6.73654L10.6068 10.4865L17.2444 3.84894L13.4944 0.0989444L6.85683 6.73654ZM10.611 10.4907C10.2176 10.0983 9.90543 9.63206 9.69246 9.11882L18.3626 5.5211C18.1024 4.89396 17.721 4.3243 17.2402 3.84475L10.611 10.4907ZM9.69246 9.11882C9.47948 8.60556 9.36985 8.05532 9.36985 7.49962H18.7568C18.7568 6.8206 18.6229 6.14826 18.3626 5.5211L9.69246 9.11882ZM9.36985 7.49962C9.36985 6.94391 9.47948 6.39367 9.69246 5.88041L18.3626 9.47813C18.6229 8.85098 18.7568 8.17863 18.7568 7.49962H9.36985ZM9.69246 5.88041C9.90543 5.36717 10.2176 4.90096 10.611 4.5085L17.2402 11.1545C17.721 10.6749 18.1024 10.1053 18.3626 9.47813L9.69246 5.88041ZM10.6068 4.51269L6.85683 8.26269L13.4944 14.9003L17.2444 11.1503L10.6068 4.51269ZM6.85683 8.26269C7.64902 7.47051 8.72345 7.02547 9.84375 7.02547V16.4124C11.213 16.4124 12.5262 15.8685 13.4944 14.9003L6.85683 8.26269ZM9.84375 7.02547C10.9641 7.02547 12.0385 7.47051 12.8307 8.26269L6.19308 14.9003C7.1613 15.8685 8.47449 16.4124 9.84375 16.4124V7.02547ZM12.8307 8.26269C13.6229 9.05488 14.0679 10.1293 14.0679 11.2496H4.68092C4.68092 12.6189 5.22485 13.9321 6.19308 14.9003L12.8307 8.26269ZM14.0679 11.2496C14.0679 12.3699 13.6229 13.4443 12.8307 14.2365L6.19308 7.59894C5.22485 8.56717 4.68092 9.88036 4.68092 11.2496H14.0679ZM12.8301 14.2371L15.7805 11.2877L9.14392 4.64904L6.19361 7.59842L12.8301 14.2371ZM12.4622 3.27488H1.40625V12.6619H12.4622V3.27488ZM1.40625 3.27488C2.52671 3.27488 3.60129 3.71998 4.39359 4.51228L-2.244 11.1499C-1.27589 12.118 0.0371492 12.6619 1.40625 12.6619V3.27488ZM4.39359 4.51228C5.18588 5.30457 5.63099 6.37915 5.63099 7.49962H-3.75599C-3.75599 8.86872 -3.21211 10.1818 -2.244 11.1499L4.39359 4.51228Z" fill="white" mask="url(#path-1-inside-1_993_2349)"/>
</svg>
