<svg width="53" height="53" viewBox="0 0 53 53" fill="none" xmlns="http://www.w3.org/2000/svg">
<path d="M15.2708 4.72549H48.0259C50.7866 4.72549 53.0001 6.93901 53.0001 9.69969V39.5449C53.0001 40.3905 52.8011 41.1864 52.428 41.8828L48.0259 37.4806V24.6223H35.1676L25.2192 14.6739H48.0259V9.69969H20.245L15.2708 4.72549ZM49.2446 52.7514L40.9874 44.5191H8.2323C5.47162 44.5191 3.2581 42.3056 3.2581 39.5449L3.28297 9.69969C3.28297 8.85407 3.48194 8.0582 3.855 7.38669L0 3.50681L3.50681 0L52.7514 49.2446L49.2446 52.7514ZM8.2323 11.764V14.6739H11.1422L8.2323 11.764ZM36.0132 39.5449L21.0906 24.6223H8.2323V39.5449H36.0132Z" fill="white"/>
</svg>
