<svg width="48" height="30" viewBox="0 0 48 30" fill="none" xmlns="http://www.w3.org/2000/svg">
<path d="M45.1875 10.3125H44.25V6.09375C44.25 4.02572 42.5672 2.34375 40.5 2.34375C39.8032 2.34274 39.1201 2.53723 38.5283 2.90513C38.1449 1.24219 36.6515 0 34.875 0H34.8739C32.807 0 31.1239 1.68197 31.1239 3.75V10.3125H16.8761V3.75C16.8761 1.68197 15.193 0 13.125 0C11.3484 0 9.85509 1.24219 9.47166 2.90513C8.8799 2.53723 8.19679 2.34274 7.5 2.34375C5.43281 2.34375 3.75 4.02572 3.75 6.09375V10.3125H2.8125C1.26187 10.3125 0 11.5744 0 13.125V16.875C0 18.4256 1.26187 19.6875 2.8125 19.6875H3.75V23.9062C3.75 25.9743 5.43281 27.6562 7.5 27.6562C8.22281 27.6562 8.89894 27.4508 9.47166 27.0949C9.85509 28.7578 11.3485 30 13.125 30H13.1261C15.193 30 16.8761 28.318 16.8761 26.25V19.6875H31.1239V26.25C31.1239 28.318 32.807 30 34.875 30C36.6516 30 38.1449 28.7578 38.5283 27.0949C39.1201 27.4628 39.8032 27.6573 40.5 27.6562C42.5672 27.6562 44.25 25.9743 44.25 23.9062V19.6875H45.1875C46.7381 19.6875 48 18.4256 48 16.875V13.125C48 11.5744 46.7381 10.3125 45.1875 10.3125ZM3.75 17.8125H2.8125C2.29575 17.8125 1.875 17.3918 1.875 16.875V13.125C1.875 12.6082 2.29575 12.1875 2.8125 12.1875H3.75V17.8125ZM9.375 23.9062C9.375 24.4237 9.16519 24.8925 8.82562 25.2319C8.48606 25.5713 8.0175 25.7812 7.5 25.7812C6.46584 25.7812 5.625 24.9404 5.625 23.9062V6.09375C5.625 5.05959 6.46584 4.21875 7.5 4.21875C8.53416 4.21875 9.375 5.05959 9.375 6.09375V23.9062ZM15.0011 26.25C15.0011 27.2842 14.1592 28.125 13.1261 28.125H13.125C12.0919 28.125 11.25 27.2842 11.25 26.25V3.75C11.25 2.71584 12.0919 1.875 13.1261 1.875C14.1592 1.875 15.0011 2.71584 15.0011 3.75V26.25ZM31.1184 14.0625H24.5625C24.045 14.0625 23.625 14.4825 23.625 15C23.625 15.5175 24.045 15.9375 24.5625 15.9375H31.1184V17.8125H16.8713V12.1875H31.1184V14.0625ZM36.75 26.25C36.75 27.2842 35.9081 28.125 34.8739 28.125C33.8408 28.125 32.9989 27.2842 32.9989 26.25V15.048C32.9982 15.0683 32.9964 15.0886 32.9934 15.1088V14.8912C32.9963 14.9109 32.9981 14.9316 32.9989 14.952V3.75C32.9989 2.71584 33.8408 1.875 34.8739 1.875H34.875C35.9081 1.875 36.75 2.71584 36.75 3.75V26.25ZM42.375 23.9062C42.375 24.9404 41.5342 25.7812 40.5 25.7812C39.4658 25.7812 38.625 24.9404 38.625 23.9062V6.09375C38.625 5.05959 39.4658 4.21875 40.5 4.21875C41.5342 4.21875 42.375 5.05959 42.375 6.09375V23.9062ZM46.125 16.875C46.125 17.3918 45.7043 17.8125 45.1875 17.8125H44.25V12.1875H45.1875C45.7043 12.1875 46.125 12.6082 46.125 13.125V16.875Z" fill="#003B95"/>
<path d="M20.8143 15.9375C20.2965 15.9375 19.8765 15.5178 19.8765 15C19.8765 14.4822 20.2957 14.0625 20.8136 14.0625H20.8143C21.3321 14.0625 21.7518 14.4822 21.7518 15C21.7518 15.5178 21.3321 15.9375 20.8143 15.9375Z" fill="#003B95"/>
</svg>
