<svg width="25" height="23" viewBox="0 0 25 23" fill="none" xmlns="http://www.w3.org/2000/svg">
<path d="M3.57164 3.12398H21.4288C21.6374 3.12388 21.8458 3.13711 22.0527 3.1636C21.9825 2.67128 21.8134 2.19827 21.5555 1.77308C21.2977 1.34789 20.9563 0.979322 20.5522 0.689605C20.148 0.399889 19.6893 0.195022 19.2038 0.0873571C18.7184 -0.0203082 18.2161 -0.028542 17.7273 0.063152L3.0415 2.57041H3.02476C2.10293 2.74669 1.28317 3.26825 0.73291 4.02855C1.56193 3.43889 2.5543 3.12266 3.57164 3.12398Z" fill="#003B95"/>
<path d="M21.4286 4.46289H3.57143C2.62454 4.46392 1.71674 4.84053 1.04719 5.51008C0.37764 6.17963 0.00103396 7.08743 0 8.03432V18.7486C0.00103396 19.6955 0.37764 20.6033 1.04719 21.2728C1.71674 21.9424 2.62454 22.319 3.57143 22.32H21.4286C22.3755 22.319 23.2833 21.9424 23.9528 21.2728C24.6224 20.6033 24.999 19.6955 25 18.7486V8.03432C24.999 7.08743 24.6224 6.17963 23.9528 5.51008C23.2833 4.84053 22.3755 4.46392 21.4286 4.46289ZM18.7779 15.1772C18.4247 15.1772 18.0795 15.0724 17.7858 14.8762C17.4922 14.68 17.2633 14.4011 17.1281 14.0748C16.993 13.7485 16.9576 13.3895 17.0265 13.0431C17.0954 12.6967 17.2655 12.3785 17.5152 12.1288C17.7649 11.879 18.0831 11.709 18.4295 11.6401C18.7759 11.5712 19.135 11.6065 19.4613 11.7417C19.7876 11.8768 20.0665 12.1057 20.2627 12.3994C20.4589 12.693 20.5636 13.0383 20.5636 13.3915C20.5636 13.8651 20.3755 14.3193 20.0406 14.6542C19.7057 14.989 19.2515 15.1772 18.7779 15.1772Z" fill="#003B95"/>
<path d="M0.027832 11.8013V6.24888C0.027832 5.03962 0.697475 3.01228 3.02169 2.5731C4.99435 2.20312 6.94747 2.20312 6.94747 2.20312C6.94747 2.20312 8.23096 3.09598 7.17069 3.09598C6.11042 3.09598 6.13832 4.46317 7.17069 4.46317C8.20305 4.46317 7.17069 5.77455 7.17069 5.77455L3.01332 10.49L0.027832 11.8013Z" fill="#003B95"/>
</svg>
