<svg width="19" height="19" viewBox="0 0 19 19" fill="none" xmlns="http://www.w3.org/2000/svg">
<g clip-path="url(#clip0_993_6509)">
<path d="M12.1757 5.72902L6.82405 5.72902L9.49988 3.05318L12.1757 5.72902ZM10.062 1.93693C9.75321 1.62818 9.25446 1.62818 8.94571 1.93693L5.31196 5.57068C4.81321 6.06152 5.16155 6.91652 5.86613 6.91652L13.1257 6.91652C13.8303 6.91652 14.1865 6.06152 13.6878 5.56277L10.062 1.93693ZM13.1336 12.0832L5.86613 12.0832C5.16155 12.0832 4.8053 12.9382 5.30405 13.4369L8.9378 17.0707C9.24655 17.3794 9.7453 17.3794 10.054 17.0707L13.6878 13.4369C14.1865 12.9382 13.8382 12.0832 13.1336 12.0832Z" fill="white"/>
</g>
<defs>
<clipPath id="clip0_993_6509">
<rect width="19" height="19" fill="white" transform="translate(0 19) rotate(-90)"/>
</clipPath>
</defs>
</svg>
