<svg width="26" height="18" viewBox="0 0 26 18" fill="none" xmlns="http://www.w3.org/2000/svg">
<path d="M6.42857 1.28571C6.42857 0.575658 7.00423 0 7.71429 0H24.4286C25.1386 0 25.7143 0.575658 25.7143 1.28571C25.7143 1.99577 25.1386 2.57143 24.4286 2.57143H7.71429C7.00423 2.57143 6.42857 1.99572 6.42857 1.28571ZM24.4286 7.71428H1.28571C0.575658 7.71428 0 8.28999 0 9C0 9.71006 0.575658 10.2857 1.28571 10.2857H24.4286C25.1386 10.2857 25.7143 9.71006 25.7143 9C25.7143 8.28999 25.1386 7.71428 24.4286 7.71428ZM24.4286 15.4286H12.8571C12.1471 15.4286 11.5714 16.0042 11.5714 16.7143C11.5714 17.4243 12.1471 18 12.8571 18H24.4286C25.1386 18 25.7143 17.4243 25.7143 16.7143C25.7143 16.0042 25.1386 15.4286 24.4286 15.4286Z" fill="#003B95"/>
</svg>
