<svg width="27" height="30" viewBox="0 0 27 30" fill="none" xmlns="http://www.w3.org/2000/svg">
<path d="M23.9062 30H2.34375C1.72238 29.9993 1.12667 29.7521 0.687291 29.3127C0.247913 28.8733 0.000744308 28.2776 0 27.6562V2.34375C0.000744308 1.72238 0.247913 1.12667 0.687291 0.687291C1.12667 0.247913 1.72238 0.000744308 2.34375 0L23.9062 0C24.5276 0.000744308 25.1233 0.247913 25.5627 0.687291C26.0021 1.12667 26.2493 1.72238 26.25 2.34375V27.6562C26.2493 28.2776 26.0021 28.8733 25.5627 29.3127C25.1233 29.7521 24.5276 29.9993 23.9062 30ZM2.34375 0.9375C1.97079 0.9375 1.6131 1.08566 1.34938 1.34938C1.08566 1.6131 0.9375 1.97079 0.9375 2.34375V27.6562C0.9375 28.0292 1.08566 28.3869 1.34938 28.6506C1.6131 28.9143 1.97079 29.0625 2.34375 29.0625H23.9062C24.2792 29.0625 24.6369 28.9143 24.9006 28.6506C25.1643 28.3869 25.3125 28.0292 25.3125 27.6562V2.34375C25.3125 1.97079 25.1643 1.6131 24.9006 1.34938C24.6369 1.08566 24.2792 0.9375 23.9062 0.9375H2.34375Z" fill="#003B95"/>
<path d="M23.9062 5.15625H18.2812C18.1569 5.15625 18.0377 5.10686 17.9498 5.01896C17.8619 4.93105 17.8125 4.81182 17.8125 4.6875V2.8125C17.8125 2.68818 17.8619 2.56895 17.9498 2.48104C18.0377 2.39314 18.1569 2.34375 18.2812 2.34375H23.9062C24.0306 2.34375 24.1498 2.39314 24.2377 2.48104C24.3256 2.56895 24.375 2.68818 24.375 2.8125V4.6875C24.375 4.81182 24.3256 4.93105 24.2377 5.01896C24.1498 5.10686 24.0306 5.15625 23.9062 5.15625ZM18.75 4.21875H23.4375V3.28125H18.75V4.21875ZM3.28125 5.15625C3.00312 5.15625 2.73124 5.07378 2.49998 4.91925C2.26872 4.76473 2.08848 4.54511 1.98205 4.28815C1.87561 4.03119 1.84776 3.74844 1.90202 3.47565C1.95628 3.20287 2.09021 2.9523 2.28688 2.75563C2.48355 2.55896 2.73412 2.42503 3.00691 2.37077C3.27969 2.31651 3.56244 2.34436 3.8194 2.4508C4.07636 2.55723 4.29598 2.73747 4.4505 2.96873C4.60503 3.19999 4.6875 3.47187 4.6875 3.75C4.6875 4.12296 4.53934 4.48065 4.27562 4.74437C4.0119 5.00809 3.65421 5.15625 3.28125 5.15625ZM3.28125 3.28125C3.18854 3.28125 3.09791 3.30874 3.02083 3.36025C2.94374 3.41176 2.88366 3.48496 2.84818 3.57062C2.8127 3.65627 2.80342 3.75052 2.82151 3.84145C2.83959 3.93238 2.88424 4.0159 2.94979 4.08146C3.01535 4.14701 3.09887 4.19166 3.1898 4.20974C3.28073 4.22783 3.37498 4.21855 3.46063 4.18307C3.54629 4.14759 3.6195 4.08751 3.671 4.01042C3.72251 3.93334 3.75 3.84271 3.75 3.75C3.75 3.62568 3.70061 3.50645 3.61271 3.41854C3.5248 3.33064 3.40557 3.28125 3.28125 3.28125Z" fill="#003B95"/>
<path d="M5.625 5.15625C5.34687 5.15625 5.07499 5.07378 4.84373 4.91925C4.61248 4.76473 4.43223 4.54511 4.3258 4.28815C4.21936 4.03119 4.19151 3.74844 4.24578 3.47565C4.30004 3.20287 4.43397 2.9523 4.63064 2.75563C4.8273 2.55896 5.07787 2.42503 5.35066 2.37077C5.62344 2.31651 5.90619 2.34436 6.16315 2.4508C6.42011 2.55723 6.63974 2.73747 6.79426 2.96873C6.94878 3.19999 7.03125 3.47187 7.03125 3.75C7.03125 4.12296 6.8831 4.48065 6.61937 4.74437C6.35565 5.00809 5.99797 5.15625 5.625 5.15625ZM5.625 3.28125C5.53229 3.28125 5.44167 3.30874 5.36458 3.36025C5.2875 3.41176 5.22741 3.48496 5.19194 3.57062C5.15646 3.65627 5.14717 3.75052 5.16526 3.84145C5.18335 3.93238 5.22799 4.0159 5.29355 4.08146C5.3591 4.14701 5.44263 4.19166 5.53356 4.20974C5.62448 4.22783 5.71873 4.21855 5.80439 4.18307C5.89004 4.14759 5.96325 4.08751 6.01476 4.01042C6.06626 3.93334 6.09375 3.84271 6.09375 3.75C6.09375 3.62568 6.04437 3.50645 5.95646 3.41854C5.86855 3.33064 5.74932 3.28125 5.625 3.28125ZM13.125 26.7188C11.1781 26.7188 9.27491 26.1414 7.65611 25.0598C6.03731 23.9781 4.77562 22.4408 4.03057 20.642C3.28552 18.8433 3.09058 16.8641 3.4704 14.9546C3.85022 13.0451 4.78775 11.2911 6.16442 9.91442C7.54109 8.53774 9.29508 7.60022 11.2046 7.2204C13.1141 6.84057 15.0933 7.03551 16.892 7.78056C18.6908 8.52561 20.2281 9.78731 21.3098 11.4061C22.3914 13.0249 22.9688 14.9281 22.9688 16.875C22.9658 19.4848 21.9277 21.9869 20.0823 23.8323C18.2369 25.6777 15.7348 26.7158 13.125 26.7188ZM13.125 7.96875C11.3635 7.96875 9.64158 8.49109 8.17696 9.46972C6.71233 10.4484 5.5708 11.8393 4.8967 13.4667C4.22261 15.0941 4.04624 16.8849 4.38989 18.6125C4.73354 20.3402 5.58177 21.9271 6.82734 23.1727C8.0729 24.4182 9.65984 25.2665 11.3875 25.6101C13.1151 25.9538 14.9059 25.7774 16.5333 25.1033C18.1607 24.4292 19.5516 23.2877 20.5303 21.823C21.5089 20.3584 22.0313 18.6365 22.0313 16.875C22.0286 14.5137 21.0895 12.2499 19.4198 10.5802C17.7501 8.91053 15.4863 7.97136 13.125 7.96875Z" fill="#003B95"/>
<path d="M13.125 23.4375C11.8271 23.4375 10.5583 23.0526 9.47907 22.3315C8.39988 21.6104 7.55874 20.5855 7.06204 19.3864C6.56534 18.1872 6.43538 16.8677 6.6886 15.5947C6.94182 14.3217 7.56683 13.1524 8.48461 12.2346C9.4024 11.3168 10.5717 10.6918 11.8447 10.4386C13.1177 10.1854 14.4372 10.3153 15.6364 10.812C16.8355 11.3087 17.8604 12.1499 18.5815 13.2291C19.3026 14.3083 19.6875 15.5771 19.6875 16.875C19.6856 18.6149 18.9936 20.283 17.7633 21.5133C16.533 22.7436 14.8649 23.4356 13.125 23.4375ZM13.125 11.25C12.0125 11.25 10.9249 11.5799 9.99992 12.198C9.07489 12.8161 8.35392 13.6946 7.92818 14.7224C7.50244 15.7502 7.39104 16.8812 7.60809 17.9724C7.82513 19.0635 8.36086 20.0658 9.14753 20.8525C9.9342 21.6391 10.9365 22.1749 12.0276 22.3919C13.1188 22.609 14.2498 22.4976 15.2776 22.0718C16.3054 21.6461 17.1839 20.9251 17.802 20.0001C18.4201 19.0751 18.75 17.9875 18.75 16.875C18.7484 15.3837 18.1552 13.9539 17.1007 12.8993C16.0462 11.8448 14.6164 11.2516 13.125 11.25Z" fill="#003B95"/>
<path d="M18.75 17.8126C18.022 17.8291 17.3027 17.6511 16.6664 17.297C16.1604 17.0054 15.5837 16.8594 15 16.8751C14.4164 16.8597 13.84 17.0057 13.3341 17.297C12.6975 17.6509 11.9782 17.8289 11.25 17.8126C10.5215 17.8291 9.80182 17.6511 9.165 17.297C8.65936 17.0059 8.08324 16.8599 7.5 16.8751C7.37568 16.8751 7.25645 16.8257 7.16854 16.7378C7.08064 16.6499 7.03125 16.5306 7.03125 16.4063C7.03125 16.282 7.08064 16.1628 7.16854 16.0749C7.25645 15.987 7.37568 15.9376 7.5 15.9376C8.22848 15.9211 8.94818 16.0991 9.585 16.4532C10.0906 16.7443 10.6668 16.8903 11.25 16.8751C11.8336 16.8904 12.41 16.7444 12.9159 16.4532C13.5525 16.0992 14.2718 15.9213 15 15.9376C15.728 15.921 16.4473 16.099 17.0836 16.4532C17.5896 16.7447 18.1663 16.8907 18.75 16.8751C18.8743 16.8751 18.9935 16.9245 19.0815 17.0124C19.1694 17.1003 19.2188 17.2195 19.2188 17.3438C19.2188 17.4681 19.1694 17.5874 19.0815 17.6753C18.9935 17.7632 18.8743 17.8126 18.75 17.8126Z" fill="#003B95"/>
</svg>
