<svg width="400" height="601" viewBox="0 0 400 601" fill="none" xmlns="http://www.w3.org/2000/svg">
<path fill-rule="evenodd" clip-rule="evenodd" d="M385 1H15C7.26802 1 1 7.26803 1 15V316.116C0.671894 316.065 0.338264 316.03 0 316.013V15C0 6.71575 6.71573 0 15 0H385C393.284 0 400 6.71573 400 15V316.118C399.672 316.066 399.338 316.031 399 316.013V15C399 7.26801 392.732 1 385 1ZM399 334.987V586C399 593.732 392.732 600 385 600H15C7.26802 600 1 593.732 1 586V334.884C0.671894 334.935 0.338264 334.97 0 334.987V586C0 594.284 6.71574 601 15 601H385C393.284 601 400 594.284 400 586V334.882C399.672 334.934 399.338 334.969 399 334.987Z" fill="#C4C4C4"/>
<path d="M6.35437e-05 335C2.54507 335 5.49089 333.999 7.29048 332.217C9.09007 330.436 10.1011 328.019 10.1011 325.5C10.1011 322.98 9.09007 320.564 7.29048 318.782C5.49089 317.001 2.54507 316 6.34193e-05 316" stroke="#C4C4C4"/>
<path d="M399.99 316C397.445 316 394.499 317.001 392.699 318.783C390.9 320.564 389.889 322.981 389.889 325.5C389.889 328.02 390.9 330.436 392.699 332.218C394.499 333.999 397.445 335 399.99 335" stroke="#C4C4C4"/>
<line x1="10.5" y1="325.5" x2="389.5" y2="325.5" stroke="#C4C4C4" stroke-linecap="round" stroke-dasharray="5 5"/>
</svg>
