<svg width="31" height="30" viewBox="0 0 31 30" fill="none" xmlns="http://www.w3.org/2000/svg">
<path d="M28.146 19.0016H24.7656C24.855 18.8575 24.9291 18.7045 24.9866 18.545C25.3299 17.5896 25.0458 16.5546 24.2625 15.9084L20.2502 12.5981C19.7876 10.4844 17.9019 8.8969 15.6514 8.8969C13.4881 8.8969 11.6621 10.3638 11.1128 12.3548L10.1035 8.82185C11.5461 8.01627 12.5243 6.47481 12.5243 4.70849C12.5243 2.11228 10.4122 0 7.81585 0C5.21951 0 3.1073 2.1121 3.1073 4.70837C3.1073 5.70828 3.42157 6.63572 3.95516 7.399C2.99839 8.30793 2.45642 9.55701 2.45642 10.8926V19.0169C1.07798 19.1614 0 20.3304 0 21.7465C0 23.2557 1.22453 24.4841 2.73232 24.491V26.1137C2.73232 26.2617 2.79114 26.4037 2.89584 26.5084C3.00053 26.6131 3.14253 26.6719 3.29059 26.6719C3.43865 26.6719 3.58065 26.6131 3.68534 26.5084C3.79004 26.4037 3.84886 26.2617 3.84886 26.1137V24.4912H5.2539V28.8834H3.84886V28.7705C3.84886 28.6224 3.79004 28.4804 3.68534 28.3757C3.58065 28.271 3.43865 28.2122 3.29059 28.2122C3.14253 28.2122 3.00053 28.271 2.89584 28.3757C2.79114 28.4804 2.73232 28.6224 2.73232 28.7705V29.4417C2.73232 29.5898 2.79114 29.7318 2.89584 29.8365C3.00053 29.9412 3.14253 30 3.29059 30H5.81217C5.96023 30 6.10223 29.9412 6.20692 29.8365C6.31162 29.7318 6.37044 29.5898 6.37044 29.4417V28.9176L15.3469 24.5537L24.4689 28.9883C24.4859 28.9966 24.5031 29.0034 24.5203 29.0099V29.4417C24.5203 29.5898 24.5791 29.7318 24.6838 29.8365C24.7885 29.9412 24.9305 30 25.0786 30H27.6002C27.7482 30 27.8902 29.9412 27.9949 29.8365C28.0996 29.7318 28.1584 29.5898 28.1584 29.4417V24.4909C29.6662 24.4841 30.8908 23.2557 30.8908 21.7464C30.8908 20.2329 29.6595 19.0016 28.146 19.0016ZM20.3321 14.1131L23.552 16.7697C24.056 17.1855 24.0807 17.7644 23.9359 18.1675C23.7911 18.5707 23.4034 19.0016 22.7498 19.0016H16.2096V18.2796C17.0857 18.1755 17.8883 17.8303 18.5499 17.3119C18.5965 17.3244 18.6452 17.3318 18.6958 17.3318H20.7304C20.8784 17.3318 21.0204 17.273 21.1251 17.1683C21.2298 17.0636 21.2886 16.9216 21.2886 16.7736C21.2886 16.6255 21.2298 16.4835 21.1251 16.3788C21.0204 16.2741 20.8784 16.2153 20.7304 16.2153H19.568C19.9889 15.5867 20.2511 14.8653 20.3321 14.1131ZM15.6514 10.0134C17.6319 10.0134 19.2433 11.6248 19.2433 13.6054C19.2433 15.586 17.632 17.1973 15.6514 17.1973C13.6707 17.1973 12.0594 15.586 12.0594 13.6054C12.0594 11.6248 13.6708 10.0134 15.6514 10.0134ZM11.7347 16.2153H10.5724C10.4243 16.2153 10.2823 16.2741 10.1776 16.3788C10.0729 16.4835 10.0141 16.6255 10.0141 16.7736C10.0141 16.9216 10.0729 17.0636 10.1776 17.1683C10.2823 17.273 10.4243 17.3318 10.5724 17.3318H12.5002C12.576 17.3319 12.6509 17.3165 12.7205 17.2865C13.3881 17.8191 14.2027 18.174 15.0931 18.2797V19.0017H8.55264C7.89911 19.0016 7.5114 18.5708 7.36648 18.1676C7.22162 17.7644 7.24642 17.1855 7.75044 16.7698L10.9706 14.1129C11.0516 14.8652 11.3138 15.5866 11.7347 16.2153ZM7.81573 1.11635C9.79629 1.11635 11.4077 2.72768 11.4077 4.70831C11.4077 6.68894 9.79629 8.30026 7.81573 8.30026C5.83516 8.30026 4.22377 6.689 4.22377 4.70831C4.22377 2.72768 5.83516 1.11635 7.81573 1.11635ZM3.57289 10.8926C3.57289 9.87859 3.97906 8.929 4.69799 8.23245C5.52914 8.96864 6.62082 9.41679 7.81573 9.41679C8.24783 9.41679 8.66601 9.35713 9.06378 9.24762L10.2178 13.2865L8.52036 14.6869L7.66326 12.1066C7.56606 11.814 7.24998 11.6555 6.95748 11.7528C6.8879 11.7759 6.82356 11.8125 6.76812 11.8605C6.71269 11.9084 6.66725 11.9669 6.63439 12.0324C6.60154 12.0979 6.58192 12.1693 6.57665 12.2424C6.57138 12.3156 6.58057 12.389 6.60368 12.4586L7.59702 15.4488L7.03996 15.9084C6.25683 16.5547 5.97254 17.5896 6.31583 18.5451C6.37341 18.7045 6.4475 18.8576 6.5369 19.0016H3.57289V10.8926ZM6.37044 27.6761V24.4912H12.9218L6.37044 27.6761ZM27.0419 28.8834H25.6369V24.4912H27.0419V28.8834ZM28.146 23.3747H23.3728C23.2247 23.3747 23.0827 23.4335 22.978 23.5382C22.8733 23.6429 22.8145 23.7849 22.8145 23.9329C22.8145 24.081 22.8733 24.223 22.978 24.3277C23.0827 24.4324 23.2247 24.4912 23.3728 24.4912H24.5204V27.7719L17.7721 24.4912H20.3603C20.5083 24.4912 20.6503 24.4324 20.755 24.3277C20.8597 24.223 20.9185 24.081 20.9185 23.9329C20.9185 23.7849 20.8597 23.6429 20.755 23.5382C20.6503 23.4335 20.5083 23.3747 20.3603 23.3747H2.74481C1.84699 23.3747 1.11653 22.6442 1.11653 21.7464C1.11653 20.8486 1.84699 20.1181 2.74481 20.1181H28.146C29.0438 20.1181 29.7742 20.8486 29.7742 21.7464C29.7742 22.6442 29.0438 23.3747 28.146 23.3747Z" fill="#003B95"/>
</svg>
