<svg width="28" height="30" viewBox="0 0 28 30" fill="none" xmlns="http://www.w3.org/2000/svg">
<path d="M22.4084 18.1265C22.0716 18.0649 21.7242 18.0989 21.4056 18.2244C21.0871 18.3499 20.81 18.5621 20.6057 18.8369L17.3927 23.1416H16.4133C16.5029 22.9233 16.5542 22.6857 16.5542 22.4353C16.5536 21.9394 16.3562 21.464 16.0055 21.1133C15.6548 20.7627 15.1793 20.5655 14.6833 20.5651H11.79C11.4272 19.9286 10.46 18.7786 8.2078 18.7786C6.26357 18.7786 5.28243 19.9537 4.90278 20.5651H4.20929V20.3456C4.20929 20.1911 4.14794 20.043 4.03874 19.9338C3.92955 19.8246 3.78144 19.7633 3.62701 19.7633H0.582278C0.427849 19.7633 0.279744 19.8246 0.170546 19.9338C0.0613471 20.043 0 20.1911 0 20.3456V28.1952C0 28.3497 0.0613471 28.4978 0.170546 28.607C0.279744 28.7162 0.427849 28.7775 0.582278 28.7775H3.62701C3.77452 28.7769 3.91621 28.7199 4.02313 28.6183C4.13005 28.5167 4.19414 28.378 4.2023 28.2308H5.92585L11.0086 29.7942C11.8855 30.0646 12.8229 30.0687 13.7022 29.8058L18.4367 28.3938C19.0645 28.2067 19.6455 27.8889 20.1418 27.4613C20.638 27.0337 21.0382 26.5059 21.316 25.9127L23.7494 20.72C23.8702 20.4646 23.9302 20.1846 23.9246 19.9022C23.9191 19.6197 23.8481 19.3424 23.7174 19.0919C23.5885 18.8408 23.4033 18.623 23.1762 18.4555C22.9491 18.288 22.6863 18.1754 22.4084 18.1265ZM1.16456 20.9278H3.04473V27.613H1.16456V20.9278ZM22.6949 20.2262L20.2621 25.4189C20.0537 25.8633 19.7537 26.2586 19.3818 26.5789C19.0099 26.8992 18.5745 27.1373 18.1042 27.2776L13.3691 28.6896C12.7104 28.8868 12.0078 28.8836 11.3509 28.6803L6.18496 27.0912C6.12947 27.0743 6.07178 27.0657 6.01377 27.0656H4.20929V21.7285H5.24924C5.4839 21.7285 5.69643 21.587 5.78668 21.3704C5.79309 21.3564 6.40273 19.942 8.2078 19.942C10.368 19.942 10.8496 21.2714 10.8665 21.3209C10.9037 21.4391 10.9776 21.5423 11.0775 21.6156C11.1774 21.6889 11.2981 21.7285 11.422 21.7285H14.6833C15.0729 21.7285 15.3896 22.0452 15.3896 22.4342C15.3896 22.8237 15.0729 23.1405 14.6833 23.1405H11.6427C11.4882 23.1405 11.3401 23.2018 11.2309 23.311C11.1217 23.4202 11.0604 23.5683 11.0604 23.7228C11.0604 23.8772 11.1217 24.0253 11.2309 24.1345C11.3401 24.2437 11.4882 24.305 11.6427 24.305H17.685C17.8684 24.305 18.0413 24.2183 18.1519 24.0715L21.5391 19.5333C21.614 19.432 21.716 19.3538 21.8332 19.3077C21.9505 19.2615 22.0784 19.2493 22.2023 19.2724C22.4107 19.3097 22.586 19.4389 22.6832 19.627C22.7805 19.8151 22.7851 20.034 22.6949 20.2262ZM10.3319 6.39649H12.1027C12.2571 6.39649 12.4052 6.33514 12.5144 6.22594C12.6236 6.11675 12.6849 5.96864 12.6849 5.81421C12.6849 5.65978 12.6236 5.51168 12.5144 5.40248C12.4052 5.29328 12.2571 5.23193 12.1027 5.23193H10.3319C10.1775 5.23193 10.0294 5.29328 9.92021 5.40248C9.81102 5.51168 9.74967 5.65978 9.74967 5.81421C9.74967 5.96864 9.81102 6.11675 9.92021 6.22594C10.0294 6.33514 10.1775 6.39649 10.3319 6.39649Z" fill="#003B95"/>
<path d="M27.0153 2.22792H23.9974C23.8429 2.22792 23.6948 2.28927 23.5856 2.39846C23.4764 2.50766 23.4151 2.65577 23.4151 2.8102V2.83174H21.0074L16.6374 0.453135C15.9884 0.0956166 15.246 -0.0559787 14.5088 0.0184888C13.7716 0.0929562 13.0745 0.389961 12.5102 0.870046L9.79675 3.15432H9.56559C9.35186 3.15507 9.14051 3.19919 8.94433 3.28402C8.74816 3.36884 8.57125 3.49261 8.42431 3.64782C8.27738 3.80303 8.16348 3.98645 8.08951 4.18698C8.01555 4.3875 7.98306 4.60095 7.99402 4.8144L8.21528 9.1285C8.23183 9.4597 8.36106 9.77531 8.58154 10.023C8.80203 10.2707 9.10053 10.4356 9.42759 10.4904V15.5242C9.4275 15.6487 9.46729 15.7699 9.54113 15.8701L10.7482 17.5063C10.8022 17.5799 10.8728 17.6397 10.9543 17.6809C11.0357 17.7221 11.1257 17.7435 11.2169 17.7435C11.3082 17.7435 11.3982 17.7221 11.4796 17.6809C11.561 17.6397 11.6316 17.5799 11.6857 17.5063L12.8927 15.8701C12.9666 15.7699 13.0064 15.6487 13.0063 15.5242V10.5085C13.0249 10.5091 13.0424 10.5137 13.061 10.5137H16.6356L17.3937 11.1065C18.1375 11.6856 19.0527 12.0009 19.9954 12.0026H20.2981C20.9917 12.0021 21.6746 11.8311 22.2866 11.5048L23.4157 10.9021V11.3802C23.4157 11.5346 23.477 11.6827 23.5862 11.7919C23.6954 11.9011 23.8435 11.9624 23.9979 11.9624H27.0159C27.1703 11.9624 27.3184 11.9011 27.4276 11.7919C27.5368 11.6827 27.5982 11.5346 27.5982 11.3802V2.8102C27.5982 2.73368 27.5831 2.65792 27.5538 2.58723C27.5245 2.51655 27.4815 2.45234 27.4274 2.39826C27.3733 2.34418 27.309 2.3013 27.2383 2.27207C27.1676 2.24285 27.0918 2.22784 27.0153 2.22792ZM9.15741 4.75501C9.15434 4.69927 9.16259 4.6435 9.18166 4.59104C9.20073 4.53858 9.23022 4.49053 9.26836 4.44977C9.3065 4.40902 9.3525 4.37641 9.40358 4.35392C9.45467 4.33142 9.50978 4.3195 9.56559 4.31888H12.8671C12.9233 4.31873 12.9788 4.33002 13.0305 4.35206C13.0821 4.3741 13.1287 4.40642 13.1675 4.44707C13.2062 4.48772 13.2363 4.53583 13.2558 4.58847C13.2753 4.64111 13.284 4.69718 13.2811 4.75326L13.1763 6.70739H13.061C12.7472 6.70778 12.4383 6.78571 12.1618 6.93424C11.8853 7.08277 11.6498 7.2973 11.4762 7.55876C11.3026 7.82023 11.1963 8.12053 11.1667 8.43299C11.1371 8.74544 11.1852 9.06036 11.3066 9.34977H9.6704C9.59519 9.34955 9.52294 9.3204 9.46864 9.26837C9.41433 9.21634 9.38212 9.1454 9.37868 9.07027L9.15741 4.75501ZM11.8423 15.3327L11.2175 16.1793L10.5927 15.3327V10.5143H11.8423V15.3327ZM21.7375 10.4776C21.2943 10.714 20.7998 10.8378 20.2976 10.8381H19.9948C19.3122 10.8369 18.6494 10.6085 18.1111 10.1888L17.1952 9.47321C17.0928 9.39318 16.9665 9.34972 16.8365 9.34977H13.0616C12.8707 9.34219 12.6901 9.26102 12.5578 9.12328C12.4254 8.98553 12.3514 8.8019 12.3514 8.61086C12.3514 8.41981 12.4254 8.23618 12.5578 8.09843C12.6901 7.96069 12.8707 7.87952 13.0616 7.87194H19.0625C19.217 7.87194 19.3651 7.8106 19.4743 7.7014C19.5835 7.5922 19.6448 7.44409 19.6448 7.28966C19.6448 7.13523 19.5835 6.98713 19.4743 6.87793C19.3651 6.76873 19.217 6.70739 19.0625 6.70739H14.3432L14.4445 4.81382C14.466 4.38351 14.3088 3.95729 14.0119 3.64518C13.7149 3.33308 13.2974 3.15374 12.8671 3.15374H11.6047L13.2607 1.75977C13.6466 1.43227 14.1229 1.2297 14.6264 1.17885C15.13 1.12801 15.6371 1.23129 16.0807 1.47503L20.5811 3.92468C20.6667 3.97126 20.7628 3.99572 20.86 3.99572H23.4162V9.5821L21.7375 10.4776ZM26.433 10.7979H24.5796V3.39248H26.433V10.7979Z" fill="#003B95"/>
</svg>
