<svg width="15" height="10" viewBox="0 0 15 10" fill="none" xmlns="http://www.w3.org/2000/svg">
<mask id="path-1-inside-1_993_5948" fill="white">
<path fill-rule="evenodd" clip-rule="evenodd" d="M0 4.8218C0 4.67973 0.0564375 4.54348 0.156897 4.44302C0.257357 4.34256 0.393609 4.28612 0.53568 4.28612H13.1702L9.79866 0.915619C9.69807 0.815032 9.64157 0.678608 9.64157 0.536357C9.64157 0.394106 9.69807 0.257682 9.79866 0.157095C9.89925 0.0565087 10.0357 3.35154e-09 10.1779 0C10.3202 -3.35154e-09 10.4566 0.0565087 10.5572 0.157095L14.8426 4.44254C14.8925 4.4923 14.9321 4.55141 14.9591 4.61649C14.9861 4.68157 15 4.75134 15 4.8218C15 4.89226 14.9861 4.96203 14.9591 5.02711C14.9321 5.09219 14.8925 5.1513 14.8426 5.20106L10.5572 9.4865C10.4566 9.58709 10.3202 9.6436 10.1779 9.6436C10.0357 9.6436 9.89925 9.58709 9.79866 9.4865C9.69807 9.38592 9.64157 9.24949 9.64157 9.10724C9.64157 8.96499 9.69807 8.82856 9.79866 8.72798L13.1702 5.35748H0.53568C0.393609 5.35748 0.257357 5.30104 0.156897 5.20058C0.0564375 5.10012 0 4.96387 0 4.8218Z"/>
</mask>
<path fill-rule="evenodd" clip-rule="evenodd" d="M0 4.8218C0 4.67973 0.0564375 4.54348 0.156897 4.44302C0.257357 4.34256 0.393609 4.28612 0.53568 4.28612H13.1702L9.79866 0.915619C9.69807 0.815032 9.64157 0.678608 9.64157 0.536357C9.64157 0.394106 9.69807 0.257682 9.79866 0.157095C9.89925 0.0565087 10.0357 3.35154e-09 10.1779 0C10.3202 -3.35154e-09 10.4566 0.0565087 10.5572 0.157095L14.8426 4.44254C14.8925 4.4923 14.9321 4.55141 14.9591 4.61649C14.9861 4.68157 15 4.75134 15 4.8218C15 4.89226 14.9861 4.96203 14.9591 5.02711C14.9321 5.09219 14.8925 5.1513 14.8426 5.20106L10.5572 9.4865C10.4566 9.58709 10.3202 9.6436 10.1779 9.6436C10.0357 9.6436 9.89925 9.58709 9.79866 9.4865C9.69807 9.38592 9.64157 9.24949 9.64157 9.10724C9.64157 8.96499 9.69807 8.82856 9.79866 8.72798L13.1702 5.35748H0.53568C0.393609 5.35748 0.257357 5.30104 0.156897 5.20058C0.0564375 5.10012 0 4.96387 0 4.8218Z" fill="#616161"/>
<path d="M0 4.8218H-4.69349H0ZM13.1702 4.28612V8.9796H24.5039L16.4885 0.966795L13.1702 4.28612ZM9.79866 0.915619L6.47986 4.23441L6.48039 4.23494L9.79866 0.915619ZM9.64157 0.536357L4.94808 0.536357L9.64157 0.536357ZM10.5572 0.157095L13.876 -3.1617L10.5572 0.157095ZM14.8426 4.44254L11.5238 7.76133L11.528 7.76552L14.8426 4.44254ZM14.8426 5.20106L11.528 1.87807L11.5238 1.88226L14.8426 5.20106ZM10.5572 9.4865L13.876 12.8053L10.5572 9.4865ZM10.1779 9.6436V4.95011V9.6436ZM9.79866 8.72798L6.48039 5.40866L6.47986 5.40918L9.79866 8.72798ZM13.1702 5.35748L16.4885 8.6768L24.5039 0.663993H13.1702V5.35748ZM4.69349 4.8218C4.69349 5.92452 4.25543 6.98208 3.47569 7.76181L-3.1619 1.12422C-4.14255 2.10488 -4.69349 3.43493 -4.69349 4.8218H4.69349ZM3.47569 7.76181C2.69596 8.54154 1.63841 8.9796 0.53568 8.9796V-0.407368C-0.851195 -0.407368 -2.18125 0.143571 -3.1619 1.12422L3.47569 7.76181ZM0.53568 8.9796H13.1702V-0.407368H0.53568V8.9796ZM16.4885 0.966795L13.1169 -2.4037L6.48039 4.23494L9.85196 7.60544L16.4885 0.966795ZM13.1175 -2.40318C13.8971 -1.62356 14.3351 -0.566173 14.3351 0.536357L4.94808 0.536357C4.94808 1.92339 5.49907 3.25362 6.47986 4.23441L13.1175 -2.40318ZM14.3351 0.536357C14.3351 1.63889 13.8971 2.69627 13.1175 3.47589L6.47986 -3.1617C5.49907 -2.18091 4.94808 -0.850674 4.94808 0.536357L14.3351 0.536357ZM13.1175 3.47589C12.3378 4.25551 11.2805 4.69349 10.1779 4.69349V-4.69349C8.79088 -4.69349 7.46065 -4.14249 6.47986 -3.1617L13.1175 3.47589ZM10.1779 4.69349C9.07539 4.69349 8.018 4.25551 7.23839 3.47589L13.876 -3.1617C12.8952 -4.14249 11.565 -4.69349 10.1779 -4.69349V4.69349ZM7.23839 3.47589L11.5238 7.76133L18.1614 1.12374L13.876 -3.1617L7.23839 3.47589ZM11.528 7.76552C11.1408 7.37928 10.8336 6.92046 10.624 6.41535L19.2942 2.81763C19.0306 2.18236 18.6442 1.60531 18.1572 1.11955L11.528 7.76552ZM10.624 6.41535C10.4144 5.91022 10.3065 5.3687 10.3065 4.8218H19.6935C19.6935 4.13398 19.5578 3.45292 19.2942 2.81763L10.624 6.41535ZM10.3065 4.8218C10.3065 4.2749 10.4144 3.73337 10.624 3.22825L19.2942 6.82597C19.5578 6.19068 19.6935 5.50962 19.6935 4.8218H10.3065ZM10.624 3.22825C10.8336 2.72314 11.1408 2.26432 11.528 1.87807L18.1572 8.52405C18.6442 8.03828 19.0306 7.46123 19.2942 6.82597L10.624 3.22825ZM11.5238 1.88226L7.23839 6.16771L13.876 12.8053L18.1614 8.51986L11.5238 1.88226ZM7.23839 6.16771C8.01801 5.38809 9.07539 4.95011 10.1779 4.95011V14.3371C11.565 14.3371 12.8952 13.7861 13.876 12.8053L7.23839 6.16771ZM10.1779 4.95011C11.2805 4.95011 12.3378 5.38809 13.1175 6.16771L6.47986 12.8053C7.46066 13.7861 8.79089 14.3371 10.1779 14.3371V4.95011ZM13.1175 6.16771C13.8971 6.94733 14.3351 8.00471 14.3351 9.10724H4.94808C4.94808 10.4943 5.49907 11.8245 6.47986 12.8053L13.1175 6.16771ZM14.3351 9.10724C14.3351 10.2098 13.8971 11.2672 13.1175 12.0468L6.47986 5.40918C5.49907 6.38998 4.94808 7.72021 4.94808 9.10724H14.3351ZM13.1169 12.0473L16.4885 8.6768L9.85196 2.03816L6.48039 5.40866L13.1169 12.0473ZM13.1702 0.663993H0.53568V10.051H13.1702V0.663993ZM0.53568 0.663993C1.63839 0.663993 2.69595 1.10204 3.47569 1.88179L-3.1619 8.51938C-2.18123 9.50004 -0.851172 10.051 0.53568 10.051V0.663993ZM3.47569 1.88179C4.25544 2.66153 4.69349 3.71908 4.69349 4.8218H-4.69349C-4.69349 6.20865 -4.14256 7.53872 -3.1619 8.51938L3.47569 1.88179Z" fill="#616161" mask="url(#path-1-inside-1_993_5948)"/>
</svg>
