<svg width="62" height="29" viewBox="0 0 62 29" fill="none" xmlns="http://www.w3.org/2000/svg">
<path d="M0 19H0.875V15H1.75L3.24625 19H5.25V15H6.125V19H7V20.3333H6.125V21.6667H7V23H6.125V27H5.25L3.74937 23H1.75V27H0.875V23H0V21.6667H0.875V20.3333H0V19ZM1.75 19H2.24437L1.75 17.6867V19ZM1.75 20.3333V21.6667H3.24625L2.7475 20.3333H1.75ZM5.25 24.3333V23H4.74688L5.25 24.3333ZM3.745 20.3333L4.24813 21.6667H5.25V20.3333H3.745Z" fill="white"/>
<path d="M13.475 26.618C12.8197 26.618 12.2331 26.4918 11.7154 26.2395C11.1977 25.9838 10.7864 25.6339 10.4817 25.1898C10.1802 24.7457 10.0197 24.2377 10 23.6658H11.7695C11.8022 24.0897 11.9808 24.4362 12.3052 24.7054C12.6296 24.9711 13.0196 25.104 13.475 25.104C13.8322 25.104 14.15 25.0199 14.4286 24.8517C14.7071 24.6835 14.9266 24.4497 15.0872 24.1502C15.2478 23.8508 15.3264 23.5093 15.3231 23.1258C15.3264 22.7355 15.2461 22.389 15.0823 22.0862C14.9184 21.7834 14.694 21.5462 14.4089 21.3746C14.1238 21.1997 13.7961 21.1122 13.4259 21.1122C13.1244 21.1088 12.8279 21.166 12.5362 21.2838C12.2446 21.4015 12.0136 21.5563 11.8432 21.7481L10.1966 21.4705L10.7225 16.1413H16.5617V17.7057H12.2315L11.9415 20.446H12.0005C12.1872 20.2206 12.451 20.0339 12.7918 19.8859C13.1326 19.7345 13.5062 19.6588 13.9125 19.6588C14.522 19.6588 15.0659 19.8068 15.5443 20.1029C16.0227 20.3956 16.3995 20.7993 16.6748 21.3141C16.95 21.8288 17.0877 22.4176 17.0877 23.0804C17.0877 23.7633 16.9337 24.3723 16.6256 24.9072C16.3209 25.4388 15.8966 25.8577 15.3526 26.1638C14.8119 26.4666 14.1861 26.618 13.475 26.618Z" fill="white"/>
<path d="M22.4206 26.618C21.9389 26.6146 21.4687 26.5289 21.01 26.3606C20.5512 26.1891 20.1384 25.9115 19.7714 25.5279C19.4044 25.141 19.1127 24.628 18.8965 23.9887C18.6802 23.3461 18.5737 22.5505 18.577 21.6017C18.577 20.7169 18.6687 19.9279 18.8522 19.2349C19.0357 18.5418 19.2995 17.9564 19.6436 17.4786C19.9876 16.9975 20.4021 16.6308 20.8871 16.3785C21.3753 16.1262 21.9209 16 22.5238 16C23.1563 16 23.7166 16.1278 24.2048 16.3835C24.6963 16.6392 25.0928 16.9891 25.3943 17.4332C25.6958 17.874 25.8825 18.3719 25.9546 18.927H24.1606C24.0688 18.53 23.8804 18.2138 23.5954 17.9783C23.3135 17.7394 22.9564 17.62 22.5238 17.62C21.8259 17.62 21.2885 17.9312 20.9117 18.5536C20.5381 19.176 20.3497 20.0305 20.3464 21.1172H20.4152C20.5758 20.8212 20.7839 20.5672 21.0395 20.3552C21.2951 20.1432 21.5834 19.9801 21.9045 19.8657C22.2289 19.7479 22.5714 19.6891 22.9318 19.6891C23.5216 19.6891 24.0508 19.8337 24.5194 20.1231C24.9913 20.4124 25.3648 20.8111 25.6401 21.3191C25.9153 21.8238 26.0513 22.4024 26.048 23.0551C26.0513 23.7347 25.9006 24.3454 25.5958 24.887C25.2911 25.4253 24.8667 25.8492 24.3228 26.1588C23.7788 26.4683 23.1448 26.6214 22.4206 26.618ZM22.4108 25.104C22.768 25.104 23.0875 25.0149 23.3693 24.8366C23.6511 24.6583 23.8739 24.4177 24.0377 24.1149C24.2016 23.8121 24.2818 23.4723 24.2786 23.0955C24.2818 22.7254 24.2032 22.3907 24.0426 22.0912C23.8853 21.7918 23.6674 21.5546 23.3889 21.3797C23.1104 21.2047 22.7925 21.1172 22.4354 21.1172C22.17 21.1172 21.9226 21.1694 21.6932 21.2737C21.4638 21.378 21.2639 21.5226 21.0935 21.7077C20.9231 21.8894 20.7888 22.1013 20.6905 22.3436C20.5955 22.5824 20.5463 22.8381 20.543 23.1106C20.5463 23.4706 20.6282 23.802 20.7888 24.1048C20.9494 24.4076 21.1705 24.6498 21.4523 24.8315C21.7341 25.0132 22.0536 25.104 22.4108 25.104Z" fill="white"/>
<path d="M31.4301 26.6735C30.6208 26.6735 29.9261 26.4632 29.3461 26.0427C28.7694 25.6188 28.3254 25.0082 28.0141 24.2108C27.7061 23.4101 27.5521 22.4462 27.5521 21.3191C27.5553 20.192 27.711 19.2332 28.019 18.4425C28.3303 17.6486 28.7743 17.043 29.351 16.6258C29.931 16.2086 30.624 16 31.4301 16C32.2362 16 32.9293 16.2086 33.5092 16.6258C34.0892 17.043 34.5332 17.6486 34.8413 18.4425C35.1525 19.2365 35.3082 20.1954 35.3082 21.3191C35.3082 22.4495 35.1525 23.4151 34.8413 24.2158C34.5332 25.0132 34.0892 25.6222 33.5092 26.0427C32.9325 26.4632 32.2395 26.6735 31.4301 26.6735ZM31.4301 25.0939C32.0593 25.0939 32.5557 24.776 32.9194 24.1401C33.2864 23.5009 33.4699 22.5606 33.4699 21.3191C33.4699 20.4982 33.3864 19.8085 33.2192 19.25C33.0521 18.6915 32.8162 18.271 32.5115 17.9884C32.2067 17.7024 31.8463 17.5594 31.4301 17.5594C30.8043 17.5594 30.3095 17.879 29.9457 18.5182C29.582 19.1541 29.3985 20.0877 29.3952 21.3191C29.392 22.1434 29.4722 22.8364 29.6361 23.3983C29.8032 23.9601 30.0391 24.3841 30.3439 24.67C30.6486 24.9526 31.0107 25.0939 31.4301 25.0939Z" fill="white"/>
<path d="M38.6579 25.0637L38.594 25.6188C38.5481 26.0427 38.4662 26.4733 38.3482 26.9107C38.2335 27.3514 38.1123 27.7569 37.9845 28.1269C37.8567 28.497 37.7535 28.788 37.6748 29H36.4755C36.5214 28.7948 36.5837 28.5155 36.6623 28.1623C36.7442 27.809 36.8229 27.412 36.8982 26.9713C36.9736 26.5305 37.0244 26.0831 37.0506 25.6289L37.085 25.0637H38.6579Z" fill="white"/>
<path d="M43.906 26.618C43.1983 26.618 42.5691 26.4935 42.0186 26.2446C41.4714 25.9956 41.0389 25.6491 40.721 25.205C40.4032 24.7609 40.2344 24.2478 40.2148 23.6658H42.0629C42.0792 23.945 42.1694 24.1889 42.3332 24.3975C42.497 24.6027 42.7149 24.7626 42.9869 24.8769C43.2589 24.9913 43.5636 25.0485 43.9011 25.0485C44.2616 25.0485 44.5811 24.9846 44.8596 24.8568C45.1381 24.7255 45.356 24.5439 45.5133 24.3117C45.6706 24.0796 45.7476 23.8121 45.7443 23.5093C45.7476 23.1964 45.669 22.9205 45.5084 22.6817C45.3478 22.4428 45.1152 22.2561 44.8104 22.1215C44.509 21.9869 44.1453 21.9196 43.7193 21.9196H42.8296V20.4763H43.7193C44.0699 20.4763 44.3763 20.4141 44.6384 20.2896C44.9038 20.1651 45.1119 19.9902 45.2626 19.7648C45.4134 19.536 45.4871 19.2719 45.4838 18.9724C45.4871 18.6797 45.4232 18.4257 45.2921 18.2104C45.1643 17.9917 44.9825 17.8218 44.7465 17.7007C44.5139 17.5796 44.2403 17.519 43.9257 17.519C43.6177 17.519 43.3326 17.5762 43.0705 17.6906C42.8083 17.805 42.597 17.9682 42.4364 18.1801C42.2758 18.3887 42.1907 18.6377 42.1808 18.927H40.4261C40.4392 18.3483 40.6014 17.8403 40.9127 17.403C41.2273 16.9622 41.6467 16.619 42.171 16.3734C42.6953 16.1245 43.2835 16 43.9355 16C44.6073 16 45.1905 16.1295 45.6853 16.3886C46.1834 16.6443 46.5684 16.9891 46.8404 17.4231C47.1124 17.8571 47.2484 18.3366 47.2484 18.8614C47.2516 19.4435 47.0845 19.9313 46.747 20.3249C46.4128 20.7186 45.9737 20.9759 45.4297 21.097V21.1778C46.1375 21.2787 46.6798 21.5479 47.0567 21.9852C47.4368 22.4193 47.6252 22.9592 47.6219 23.6052C47.6219 24.1839 47.4613 24.702 47.1402 25.1595C46.8224 25.6137 46.3833 25.9704 45.823 26.2294C45.2659 26.4885 44.6269 26.618 43.906 26.618Z" fill="white"/>
<path d="M49.309 26.4767V25.1242L52.8037 21.6068C53.138 21.2602 53.4165 20.9524 53.6393 20.6832C53.8621 20.4141 54.0292 20.1533 54.1407 19.901C54.2521 19.6487 54.3078 19.3795 54.3078 19.0936C54.3078 18.7672 54.2357 18.488 54.0915 18.2558C53.9473 18.0203 53.7491 17.8386 53.4968 17.7108C53.2444 17.5829 52.9577 17.519 52.6366 17.519C52.3057 17.519 52.0157 17.5897 51.7666 17.731C51.5176 17.8689 51.3243 18.0657 51.1866 18.3214C51.0523 18.5771 50.9851 18.8816 50.9851 19.2349H49.2501C49.2501 18.5788 49.3959 18.0085 49.6875 17.5241C49.9791 17.0396 50.3806 16.6645 50.8917 16.3987C51.4062 16.1329 51.996 16 52.6612 16C53.3362 16 53.9293 16.1295 54.4405 16.3886C54.9517 16.6476 55.3481 17.0026 55.6299 17.4534C55.915 17.9042 56.0576 18.419 56.0576 18.9977C56.0576 19.3846 55.9855 19.7648 55.8413 20.1382C55.6971 20.5116 55.4432 20.9255 55.0794 21.3797C54.719 21.8339 54.2127 22.3839 53.5607 23.0299L51.8256 24.8416V24.9123H56.2099V26.4767H49.309Z" fill="white"/>
<path d="M62 16.1413V26.4767H60.1765V17.9631H60.1175L57.7631 19.5074V17.7915L60.2649 16.1413H62Z" fill="white"/>
<path d="M3 7.80488V0H5.99996C6.57668 0 7.06801 0.113059 7.47395 0.339177C7.87988 0.562754 8.18928 0.873984 8.40215 1.27287C8.61749 1.66921 8.72517 2.12652 8.72517 2.64482C8.72517 3.16311 8.61626 3.62043 8.39844 4.01677C8.18062 4.41311 7.86503 4.7218 7.45167 4.94284C7.04078 5.16387 6.54327 5.27439 5.95912 5.27439H4.04701V3.95198H5.69922C6.00862 3.95198 6.26357 3.89736 6.46406 3.78811C6.66703 3.67632 6.81801 3.52261 6.91702 3.32698C7.01851 3.12881 7.06925 2.90142 7.06925 2.64482C7.06925 2.38567 7.01851 2.15955 6.91702 1.96646C6.81801 1.77083 6.66703 1.61966 6.46406 1.51296C6.26109 1.40371 6.00367 1.34909 5.69179 1.34909H4.60765V7.80488H3Z" fill="white"/>
<path d="M11.2128 7.9154C10.8489 7.9154 10.5246 7.85061 10.24 7.72104C9.95535 7.58892 9.7301 7.39456 9.56426 7.13796C9.4009 6.87881 9.31922 6.55615 9.31922 6.16997C9.31922 5.84477 9.37738 5.57165 9.49372 5.35061C9.61005 5.12957 9.76847 4.95173 9.96896 4.81707C10.1695 4.68242 10.3972 4.58079 10.6521 4.5122C10.9095 4.4436 11.1793 4.39532 11.4615 4.36738C11.7932 4.33181 12.0605 4.29878 12.2635 4.26829C12.4664 4.23526 12.6137 4.18699 12.7053 4.12348C12.7969 4.05996 12.8427 3.96596 12.8427 3.84146V3.8186C12.8427 3.57724 12.7684 3.3905 12.6199 3.25838C12.4739 3.12627 12.266 3.06021 11.9962 3.06021C11.7115 3.06021 11.485 3.125 11.3167 3.25457C11.1484 3.38161 11.037 3.54167 10.9826 3.73476L9.51971 3.6128C9.59396 3.25711 9.74 2.94969 9.95782 2.69055C10.1756 2.42886 10.4566 2.22815 10.8006 2.08841C11.1472 1.94614 11.5481 1.875 12.0036 1.875C12.3204 1.875 12.6236 1.91311 12.9132 1.98933C13.2053 2.06555 13.464 2.18369 13.6892 2.34375C13.9169 2.50381 14.0964 2.7096 14.2276 2.96113C14.3587 3.21011 14.4243 3.50864 14.4243 3.85671V7.80488H12.9244V6.99314H12.8798C12.7882 7.17607 12.6657 7.3374 12.5122 7.47713C12.3588 7.61433 12.1744 7.72231 11.959 7.80107C11.7437 7.87729 11.4949 7.9154 11.2128 7.9154ZM11.6657 6.79497C11.8984 6.79497 12.1038 6.74797 12.282 6.65396C12.4603 6.55742 12.6001 6.42785 12.7016 6.26524C12.8031 6.10264 12.8538 5.91845 12.8538 5.71265V5.09146C12.8043 5.12449 12.7362 5.15498 12.6496 5.18293C12.5655 5.20833 12.4702 5.23247 12.3637 5.25534C12.2573 5.27566 12.1509 5.29472 12.0444 5.3125C11.938 5.32774 11.8415 5.34172 11.7548 5.35442C11.5692 5.38237 11.4071 5.42683 11.2684 5.4878C11.1298 5.54878 11.0222 5.63135 10.9454 5.73552C10.8687 5.83714 10.8303 5.96418 10.8303 6.11662C10.8303 6.33765 10.9083 6.50661 11.0642 6.62348C11.2227 6.7378 11.4231 6.79497 11.6657 6.79497Z" fill="white"/>
<path d="M16.4237 10C16.2232 10 16.0351 9.98349 15.8593 9.95046C15.6861 9.91997 15.5425 9.88059 15.4287 9.83232L15.7851 8.62043C15.9707 8.67886 16.1378 8.71062 16.2863 8.7157C16.4373 8.72078 16.5673 8.68521 16.6762 8.60899C16.7875 8.53277 16.8779 8.4032 16.9472 8.22027L17.04 7.97256L14.9943 1.95122H16.6576L17.8383 6.25H17.8977L19.0895 1.95122H20.764L18.5474 8.4375C18.441 8.75254 18.2962 9.02693 18.113 9.26067C17.9323 9.49695 17.7034 9.67861 17.4262 9.80564C17.1489 9.93521 16.8148 10 16.4237 10Z" fill="white"/>
<path d="M30.383 0V7.80488H28.9944L25.6862 2.89253H25.6306V7.80488H24.0229V0H25.4338L28.7159 4.90854H28.7827V0H30.383Z" fill="white"/>
<path d="M34.2582 7.91921C33.6815 7.91921 33.1827 7.79344 32.7619 7.54192C32.3436 7.28786 32.0206 6.9347 31.7929 6.48247C31.5652 6.02769 31.4513 5.50051 31.4513 4.90091C31.4513 4.29624 31.5652 3.76778 31.7929 3.31555C32.0206 2.86077 32.3436 2.50762 32.7619 2.2561C33.1827 2.00203 33.6815 1.875 34.2582 1.875C34.8349 1.875 35.3325 2.00203 35.7508 2.2561C36.1716 2.50762 36.4958 2.86077 36.7235 3.31555C36.9512 3.76778 37.0651 4.29624 37.0651 4.90091C37.0651 5.50051 36.9512 6.02769 36.7235 6.48247C36.4958 6.9347 36.1716 7.28786 35.7508 7.54192C35.3325 7.79344 34.8349 7.91921 34.2582 7.91921ZM34.2656 6.66158C34.528 6.66158 34.7471 6.58537 34.9228 6.43293C35.0985 6.27795 35.231 6.06707 35.3201 5.8003C35.4117 5.53354 35.4575 5.22993 35.4575 4.88948C35.4575 4.54903 35.4117 4.24543 35.3201 3.97866C35.231 3.71189 35.0985 3.50102 34.9228 3.34604C34.7471 3.19106 34.528 3.11357 34.2656 3.11357C34.0008 3.11357 33.778 3.19106 33.5973 3.34604C33.4191 3.50102 33.2842 3.71189 33.1926 3.97866C33.1035 4.24543 33.059 4.54903 33.059 4.88948C33.059 5.22993 33.1035 5.53354 33.1926 5.8003C33.2842 6.06707 33.4191 6.27795 33.5973 6.43293C33.778 6.58537 34.0008 6.66158 34.2656 6.66158Z" fill="white"/>
<path d="M39.0756 7.80488L37.5236 1.95122H39.1239L40.0075 5.88415H40.0595L40.9803 1.95122H42.5508L43.4864 5.86128H43.5347L44.4035 1.95122H46L44.4518 7.80488H42.7773L41.7971 4.12348H41.7265L40.7464 7.80488H39.0756Z" fill="white"/>
</svg>
