<svg width="17" height="15" viewBox="0 0 17 15" fill="none" xmlns="http://www.w3.org/2000/svg">
<path fill-rule="evenodd" clip-rule="evenodd" d="M1.80045 7.70293C1.23691 8.54867 0.936228 9.54226 0.936271 10.5586V11.4695C0.936271 11.5937 0.88695 11.7128 0.799157 11.8006C0.711365 11.8884 0.592293 11.9377 0.468136 11.9377C0.343978 11.9377 0.224906 11.8884 0.137114 11.8006C0.0493213 11.7128 0 11.5937 0 11.4695V10.5595C0.000284931 9.35774 0.356364 8.18297 1.02334 7.1833L1.12446 7.03162C1.15858 6.98047 1.20244 6.93655 1.25354 6.90235C1.30463 6.86815 1.36196 6.84435 1.42226 6.83231C1.48255 6.82027 1.54463 6.82022 1.60494 6.83217C1.66525 6.84412 1.72262 6.86783 1.77377 6.90195C1.82491 6.93607 1.86884 6.97993 1.90304 7.03102C1.93724 7.08212 1.96104 7.13945 1.97308 7.19974C1.98512 7.26004 1.98517 7.32211 1.97322 7.38242C1.96127 7.44273 1.93756 7.5001 1.90344 7.55125L1.80232 7.70293H1.80045Z" fill="white"/>
<path fill-rule="evenodd" clip-rule="evenodd" d="M4.44074 6.1936C3.42021 6.1936 2.46802 6.70293 1.90251 7.55119L1.12354 7.03249C1.48752 6.48654 1.98065 6.03887 2.55915 5.7292C3.13765 5.41954 3.78364 5.25745 4.43981 5.25732H4.64579C4.76994 5.25732 4.88902 5.30665 4.97681 5.39444C5.0646 5.48223 5.11392 5.6013 5.11392 5.72546C5.11392 5.84962 5.0646 5.96869 4.97681 6.05648C4.88902 6.14427 4.76994 6.1936 4.64579 6.1936H4.44074ZM7.32259 7.69163C7.76263 8.35264 7.99764 9.12787 7.99764 9.92183H8.93391C8.93412 8.94342 8.64448 7.98688 8.10156 7.17294L8.00794 7.03249C7.97477 6.97937 7.93127 6.93343 7.88003 6.89742C7.82879 6.8614 7.77085 6.83604 7.70962 6.82282C7.6484 6.8096 7.58515 6.80881 7.52362 6.82048C7.46208 6.83215 7.40351 6.85605 7.35138 6.89076C7.29925 6.92547 7.25461 6.97029 7.22011 7.02257C7.18562 7.07484 7.16196 7.13351 7.15055 7.19509C7.13913 7.25667 7.14019 7.31992 7.15366 7.38109C7.16713 7.44226 7.19273 7.5001 7.22896 7.55119L7.32259 7.69163Z" fill="white"/>
<path fill-rule="evenodd" clip-rule="evenodd" d="M4.69169 6.1936C5.71129 6.1936 6.66348 6.70293 7.22899 7.55119L8.00797 7.03249C7.64398 6.48654 7.15085 6.03887 6.57235 5.7292C5.99385 5.41954 5.34786 5.25745 4.69169 5.25732H4.48571C4.42424 5.25732 4.36336 5.26943 4.30657 5.29296C4.24977 5.31649 4.19816 5.35097 4.15469 5.39444C4.11122 5.43791 4.07674 5.48952 4.05321 5.54631C4.02969 5.60311 4.01758 5.66398 4.01758 5.72546C4.01758 5.78694 4.02969 5.84781 4.05321 5.90461C4.07674 5.9614 4.11122 6.01301 4.15469 6.05648C4.19816 6.09995 4.24977 6.13443 4.30657 6.15796C4.36336 6.18149 4.42424 6.1936 4.48571 6.1936H4.69169Z" fill="white"/>
<path fill-rule="evenodd" clip-rule="evenodd" d="M4.50626 5.14949C4.7829 5.14949 5.05684 5.095 5.31242 4.98914C5.56801 4.88327 5.80024 4.7281 5.99586 4.53248C6.19147 4.33686 6.34665 4.10463 6.45251 3.84905C6.55838 3.59346 6.61287 3.31953 6.61287 3.04288C6.61287 2.76624 6.55838 2.4923 6.45251 2.23672C6.34665 1.98113 6.19147 1.7489 5.99586 1.55328C5.80024 1.35767 5.56801 1.20249 5.31242 1.09663C5.05684 0.99076 4.7829 0.936271 4.50626 0.936271C3.94755 0.936271 3.41173 1.15822 3.01666 1.55328C2.6216 1.94835 2.39965 2.48417 2.39965 3.04288C2.39965 3.60159 2.6216 4.13741 3.01666 4.53248C3.41173 4.92755 3.94755 5.14949 4.50626 5.14949ZM4.50626 6.08576C5.31328 6.08576 6.08725 5.76517 6.6579 5.19452C7.22855 4.62387 7.54914 3.8499 7.54914 3.04288C7.54914 2.23586 7.22855 1.46189 6.6579 0.891239C6.08725 0.320588 5.31328 0 4.50626 0C3.69924 0 2.92527 0.320588 2.35462 0.891239C1.78397 1.46189 1.46338 2.23586 1.46338 3.04288C1.46338 3.8499 1.78397 4.62387 2.35462 5.19452C2.92527 5.76517 3.69924 6.08576 4.50626 6.08576ZM8.4929 10.7072C7.92919 11.5532 7.6285 12.5471 7.62872 13.5638V14.5319C7.62872 14.656 7.5794 14.7751 7.49161 14.8629C7.40382 14.9507 7.28475 15 7.16059 15C7.03643 15 6.91736 14.9507 6.82957 14.8629C6.74177 14.7751 6.69245 14.656 6.69245 14.5319V13.5638C6.69237 12.3625 7.04778 11.1881 7.71392 10.1885L7.83845 10.0012C7.90748 9.89795 8.01472 9.8263 8.13658 9.80207C8.25843 9.77784 8.38492 9.80301 8.48822 9.87204C8.59152 9.94107 8.66317 10.0483 8.6874 10.1702C8.71163 10.292 8.68646 10.4185 8.61743 10.5218L8.4929 10.7072Z" fill="white"/>
<path fill-rule="evenodd" clip-rule="evenodd" d="M11.2193 9.12865C10.7042 9.12858 10.1972 9.25571 9.74308 9.49875C9.28901 9.7418 8.902 10.0932 8.61642 10.5218L7.83838 10.0022C8.2094 9.44554 8.71211 8.98909 9.30189 8.67337C9.89167 8.35766 10.5503 8.19244 11.2193 8.19238H11.429C11.5531 8.19238 11.6722 8.2417 11.76 8.3295C11.8478 8.41729 11.8971 8.53636 11.8971 8.66052C11.8971 8.78468 11.8478 8.90375 11.76 8.99154C11.6722 9.07933 11.5531 9.12865 11.429 9.12865H11.2193ZM14.2032 10.7072C14.7672 11.5531 15.0682 12.5471 15.0683 13.5638V14.5319C15.0683 14.656 15.1176 14.7751 15.2054 14.8629C15.2932 14.9507 15.4122 15 15.5364 15C15.6606 15 15.7796 14.9507 15.8674 14.8629C15.9552 14.7751 16.0045 14.656 16.0045 14.5319V13.5638C16.0043 12.3624 15.6486 11.188 14.9821 10.1885L14.8576 10.0013C14.7886 9.89796 14.6813 9.82631 14.5595 9.80208C14.4376 9.77785 14.3111 9.80302 14.2078 9.87205C14.1045 9.94108 14.0329 10.0483 14.0087 10.1702C13.9844 10.292 14.0096 10.4185 14.0786 10.5218L14.2032 10.7072Z" fill="white"/>
<path fill-rule="evenodd" clip-rule="evenodd" d="M11.4766 9.12865C11.9917 9.12858 12.4987 9.25571 12.9528 9.49875C13.4069 9.7418 13.7939 10.0932 14.0795 10.5218L14.8585 10.0022C14.4874 9.4454 13.9845 8.98888 13.3945 8.67315C12.8046 8.35743 12.1458 8.19228 11.4766 8.19238H11.266C11.1418 8.19238 11.0228 8.2417 10.935 8.3295C10.8472 8.41729 10.7979 8.53636 10.7979 8.66052C10.7979 8.78468 10.8472 8.90375 10.935 8.99154C11.0228 9.07933 11.1418 9.12865 11.266 9.12865H11.4766Z" fill="white"/>
<path fill-rule="evenodd" clip-rule="evenodd" d="M11.2943 8.19246C11.571 8.19246 11.8449 8.13797 12.1005 8.0321C12.3561 7.92624 12.5883 7.77106 12.7839 7.57545C12.9796 7.37983 13.1347 7.1476 13.2406 6.89202C13.3465 6.63643 13.401 6.36249 13.401 6.08585C13.401 5.80921 13.3465 5.53527 13.2406 5.27969C13.1347 5.0241 12.9796 4.79187 12.7839 4.59625C12.5883 4.40064 12.3561 4.24546 12.1005 4.1396C11.8449 4.03373 11.571 3.97924 11.2943 3.97924C10.7356 3.97924 10.1998 4.20119 9.80475 4.59625C9.40968 4.99132 9.18774 5.52714 9.18774 6.08585C9.18774 6.64456 9.40968 7.18038 9.80475 7.57545C10.1998 7.97051 10.7356 8.19246 11.2943 8.19246ZM11.2943 9.12873C12.1014 9.12873 12.8753 8.80814 13.446 8.23749C14.0166 7.66684 14.3372 6.89287 14.3372 6.08585C14.3372 5.27883 14.0166 4.50486 13.446 3.93421C12.8753 3.36356 12.1014 3.04297 11.2943 3.04297C10.4873 3.04297 9.71336 3.36356 9.1427 3.93421C8.57205 4.50486 8.25146 5.27883 8.25146 6.08585C8.25146 6.89287 8.57205 7.66684 9.1427 8.23749C9.71336 8.80814 10.4873 9.12873 11.2943 9.12873Z" fill="white"/>
</svg>
