<svg width="33" height="33" viewBox="0 0 33 33" fill="none" xmlns="http://www.w3.org/2000/svg">
<path d="M6.87517 10.9999C6.14583 10.9999 5.44636 10.7102 4.93063 10.1944C4.41491 9.67871 4.12518 8.97924 4.12518 8.2499C4.12518 7.52056 4.41491 6.82109 4.93063 6.30537C5.44636 5.78965 6.14583 5.49992 6.87517 5.49992C7.60451 5.49992 8.30398 5.78965 8.8197 6.30537C9.33542 6.82109 9.62515 7.52056 9.62515 8.2499C9.62515 8.97924 9.33542 9.67871 8.8197 10.1944C8.30398 10.7102 7.60451 10.9999 6.87517 10.9999ZM6.87517 10.9999V21.9998M16.5001 10.9999C15.7708 10.9999 15.0713 10.7102 14.5556 10.1944C14.0399 9.67871 13.7501 8.97924 13.7501 8.2499C13.7501 7.52056 14.0399 6.82109 14.5556 6.30537C15.0713 5.78965 15.7708 5.49992 16.5001 5.49992C17.2294 5.49992 17.9289 5.78965 18.4446 6.30537C18.9604 6.82109 19.2501 7.52056 19.2501 8.2499C19.2501 8.97924 18.9604 9.67871 18.4446 10.1944C17.9289 10.7102 17.2294 10.9999 16.5001 10.9999ZM16.5001 10.9999V21.9998M6.87517 21.9998C7.60451 21.9998 8.30398 22.2896 8.8197 22.8053C9.33542 23.321 9.62515 24.0205 9.62515 24.7498C9.62515 25.4791 9.33542 26.1786 8.8197 26.6943C8.30398 27.2101 7.60451 27.4998 6.87517 27.4998C6.14583 27.4998 5.44636 27.2101 4.93063 26.6943C4.41491 26.1786 4.12518 25.4791 4.12518 24.7498C4.12518 24.0205 4.41491 23.321 4.93063 22.8053C5.44636 22.2896 6.14583 21.9998 6.87517 21.9998ZM16.5001 21.9998C17.2294 21.9998 17.9289 22.2896 18.4446 22.8053C18.9604 23.321 19.2501 24.0205 19.2501 24.7498C19.2501 25.4791 18.9604 26.1786 18.4446 26.6943C17.9289 27.2101 17.2294 27.4998 16.5001 27.4998C15.7708 27.4998 15.0713 27.2101 14.5556 26.6943C14.0399 26.1786 13.7501 25.4791 13.7501 24.7498C13.7501 24.0205 14.0399 23.321 14.5556 22.8053C15.0713 22.2896 15.7708 21.9998 16.5001 21.9998ZM23.3751 8.2499C23.3751 8.97924 23.6648 9.67871 24.1805 10.1944C24.6962 10.7102 25.3957 10.9999 26.1251 10.9999C26.8544 10.9999 27.5539 10.7102 28.0696 10.1944C28.5853 9.67871 28.875 8.97924 28.875 8.2499C28.875 7.52056 28.5853 6.82109 28.0696 6.30537C27.5539 5.78965 26.8544 5.49992 26.1251 5.49992C25.3957 5.49992 24.6962 5.78965 24.1805 6.30537C23.6648 6.82109 23.3751 7.52056 23.3751 8.2499Z" stroke="#003B95" stroke-width="2.74368" stroke-linecap="round" stroke-linejoin="round"/>
<path d="M26.125 10.9998V13.7498C26.125 14.4792 25.8353 15.1786 25.3196 15.6944C24.8039 16.2101 24.1044 16.4998 23.375 16.4998H6.87514" stroke="#003B95" stroke-width="2.74368" stroke-linecap="round" stroke-linejoin="round"/>
</svg>
