<svg width="20" height="20" viewBox="0 0 20 20" fill="none" xmlns="http://www.w3.org/2000/svg">
<path d="M17.4252 9.26756C17.4252 13.3426 14.4669 17.1592 10.4252 18.2759C10.1502 18.3509 9.85019 18.3509 9.57519 18.2759C5.53352 17.1592 2.5752 13.3426 2.5752 9.26756V5.60922C2.5752 4.92588 3.09187 4.15088 3.73354 3.89255L8.37519 1.99258C9.41686 1.56758 10.5919 1.56758 11.6335 1.99258L16.2752 3.89255C16.9085 4.15088 17.4335 4.92588 17.4335 5.60922L17.4252 9.26756Z" stroke="#003B95" stroke-width="1.5" stroke-linecap="round" stroke-linejoin="round"/>
<path d="M10.0002 10.4173C10.9206 10.4173 11.6668 9.67113 11.6668 8.75065C11.6668 7.83018 10.9206 7.08398 10.0002 7.08398C9.07969 7.08398 8.3335 7.83018 8.3335 8.75065C8.3335 9.67113 9.07969 10.4173 10.0002 10.4173Z" stroke="#003B95" stroke-width="1.5" stroke-miterlimit="10" stroke-linecap="round" stroke-linejoin="round"/>
<path d="M10 10.418V12.918" stroke="#003B95" stroke-width="1.5" stroke-miterlimit="10" stroke-linecap="round" stroke-linejoin="round"/>
</svg>
