<svg width="7" height="9" viewBox="0 0 7 9" fill="none" xmlns="http://www.w3.org/2000/svg">
<path d="M0 8.6153V0H3.50213C4.17251 0 4.74464 0.116385 5.21852 0.349155C5.6953 0.579121 6.05794 0.90584 6.30644 1.32931C6.55783 1.74998 6.68353 2.24497 6.68353 2.81427C6.68353 3.38638 6.55639 3.87857 6.30211 4.29082C6.04782 4.70027 5.67941 5.01437 5.19685 5.23312C4.71719 5.45187 4.13639 5.56124 3.45445 5.56124H1.10959V4.09731H3.15105C3.50936 4.09731 3.80698 4.04964 4.04392 3.95429C4.28087 3.85894 4.45713 3.71591 4.57271 3.5252C4.69118 3.3345 4.75042 3.09753 4.75042 2.81427C4.75042 2.52822 4.69118 2.28704 4.57271 2.09072C4.45713 1.89441 4.27942 1.74578 4.03959 1.64482C3.80265 1.54105 3.50358 1.48917 3.14238 1.48917H1.87676V8.6153H0ZM4.79376 4.69466L6.99993 8.6153H4.92812L2.76963 4.69466H4.79376Z" fill="#003B95"/>
</svg>
