<svg width="59" height="52" viewBox="0 0 59 52" fill="none" xmlns="http://www.w3.org/2000/svg">
<path d="M53.1 0H5.9C2.6255 0 0.0295 2.6255 0.0295 5.9L0 41.3C0 44.5745 2.6255 47.2 5.9 47.2H17.7C19.3225 47.2 20.65 45.8725 20.65 44.25C20.65 42.6275 19.3225 41.3 17.7 41.3H5.9V23.6H59V5.9C59 2.655 56.345 0 53.1 0ZM53.1 11.8H5.9V5.9H53.1V11.8ZM38.1435 44.7515L31.8895 38.4975C30.739 37.347 28.8805 37.347 27.73 38.4975C26.5795 39.648 26.5795 41.5065 27.73 42.657L36.0785 51.0055C37.229 52.156 39.0875 52.156 40.238 51.0055L56.935 34.3085C58.0855 33.158 58.0855 31.2995 56.935 30.149C55.7845 28.9985 53.926 28.9985 52.7755 30.149L38.1435 44.7515Z" fill="white"/>
</svg>
