<svg width="33" height="33" viewBox="0 0 33 33" fill="none" xmlns="http://www.w3.org/2000/svg">
<path fill-rule="evenodd" clip-rule="evenodd" d="M5.54409 16.4644C4.55097 17.9548 4.02107 19.7058 4.02115 21.4968V23.1023C4.02115 23.3211 3.93423 23.5309 3.77952 23.6856C3.6248 23.8403 3.41496 23.9273 3.19616 23.9273C2.97735 23.9273 2.76751 23.8403 2.6128 23.6856C2.45808 23.5309 2.37116 23.3211 2.37116 23.1023V21.4985C2.37166 19.3806 2.99918 17.3103 4.1746 15.5486L4.3528 15.2813C4.41293 15.1912 4.49022 15.1138 4.58027 15.0535C4.67031 14.9932 4.77135 14.9513 4.8776 14.9301C4.98386 14.9088 5.09325 14.9088 5.19954 14.9298C5.30583 14.9509 5.40693 14.9927 5.49707 15.0528C5.58721 15.1129 5.66462 15.1902 5.72489 15.2803C5.78515 15.3703 5.82709 15.4713 5.84831 15.5776C5.86954 15.6839 5.86962 15.7932 5.84856 15.8995C5.82751 16.0058 5.78572 16.1069 5.72559 16.1971L5.54739 16.4644H5.54409Z" fill="#003B95"/>
<path fill-rule="evenodd" clip-rule="evenodd" d="M10.197 13.8038C8.39847 13.8038 6.72043 14.7014 5.72384 16.1963L4.35104 15.2822C4.9925 14.3201 5.86153 13.5312 6.88102 12.9854C7.90051 12.4397 9.03894 12.1541 10.1953 12.1539H10.5583C10.7771 12.1539 10.9869 12.2408 11.1417 12.3955C11.2964 12.5502 11.3833 12.76 11.3833 12.9788C11.3833 13.1976 11.2964 13.4075 11.1417 13.5622C10.9869 13.7169 10.7771 13.8038 10.5583 13.8038H10.197ZM15.2756 16.4438C16.0511 17.6087 16.4653 18.9749 16.4653 20.3741H18.1153C18.1156 18.6499 17.6052 16.9642 16.6484 15.5297L16.4834 15.2822C16.425 15.1886 16.3483 15.1077 16.258 15.0442C16.1677 14.9807 16.0656 14.936 15.9577 14.9127C15.8498 14.8894 15.7383 14.888 15.6299 14.9086C15.5215 14.9292 15.4182 14.9713 15.3264 15.0325C15.2345 15.0936 15.1558 15.1726 15.095 15.2647C15.0342 15.3569 14.9926 15.4603 14.9724 15.5688C14.9523 15.6773 14.9542 15.7888 14.9779 15.8966C15.0017 16.0044 15.0468 16.1063 15.1106 16.1963L15.2756 16.4438Z" fill="#003B95"/>
<path fill-rule="evenodd" clip-rule="evenodd" d="M10.6394 13.8038C12.4362 13.8038 14.1142 14.7014 15.1108 16.1963L16.4836 15.2822C15.8422 14.3201 14.9731 13.5312 13.9536 12.9854C12.9342 12.4397 11.7957 12.1541 10.6394 12.1539H10.2764C10.168 12.1539 10.0607 12.1752 9.96065 12.2167C9.86055 12.2581 9.76961 12.3189 9.693 12.3955C9.61639 12.4721 9.55562 12.563 9.51416 12.6631C9.4727 12.7632 9.45136 12.8705 9.45136 12.9788C9.45136 13.0872 9.4727 13.1945 9.51416 13.2946C9.55562 13.3947 9.61639 13.4856 9.693 13.5622C9.76961 13.6388 9.86055 13.6996 9.96065 13.741C10.0607 13.7825 10.168 13.8038 10.2764 13.8038H10.6394Z" fill="#003B95"/>
<path fill-rule="evenodd" clip-rule="evenodd" d="M10.3125 11.9644C10.8001 11.9644 11.2828 11.8684 11.7332 11.6818C12.1837 11.4952 12.5929 11.2218 12.9377 10.877C13.2824 10.5323 13.5559 10.123 13.7424 9.67261C13.929 9.22219 14.025 8.73944 14.025 8.25191C14.025 7.76438 13.929 7.28162 13.7424 6.8312C13.5559 6.38078 13.2824 5.97152 12.9377 5.62679C12.5929 5.28205 12.1837 5.00859 11.7332 4.82202C11.2828 4.63546 10.8001 4.53943 10.3125 4.53943C9.32793 4.53943 8.38365 4.93056 7.68742 5.62679C6.9912 6.32301 6.60006 7.2673 6.60006 8.25191C6.60006 9.23652 6.9912 10.1808 7.68742 10.877C8.38365 11.5732 9.32793 11.9644 10.3125 11.9644ZM10.3125 13.6144C11.7348 13.6144 13.0987 13.0494 14.1044 12.0437C15.11 11.0381 15.675 9.67412 15.675 8.25191C15.675 6.82969 15.11 5.46573 14.1044 4.46007C13.0987 3.45441 11.7348 2.88944 10.3125 2.88944C8.89033 2.88944 7.52636 3.45441 6.5207 4.46007C5.51505 5.46573 4.95007 6.82969 4.95007 8.25191C4.95007 9.67412 5.51505 11.0381 6.5207 12.0437C7.52636 13.0494 8.89033 13.6144 10.3125 13.6144ZM17.3382 21.7587C16.3448 23.2496 15.8149 25.0013 15.8153 26.7928V28.4989C15.8153 28.7177 15.7283 28.9276 15.5736 29.0823C15.4189 29.237 15.2091 29.3239 14.9903 29.3239C14.7715 29.3239 14.5616 29.237 14.4069 29.0823C14.2522 28.9276 14.1653 28.7177 14.1653 28.4989V26.7928C14.1651 24.6759 14.7915 22.6063 15.9654 20.8446L16.1849 20.5146C16.3065 20.3326 16.4955 20.2063 16.7102 20.1636C16.925 20.1209 17.1479 20.1653 17.3299 20.2869C17.512 20.4086 17.6383 20.5976 17.681 20.8123C17.7237 21.0271 17.6793 21.25 17.5576 21.432L17.3382 21.7587Z" fill="#003B95"/>
<path fill-rule="evenodd" clip-rule="evenodd" d="M22.1429 18.9768C21.2353 18.9767 20.3417 19.2007 19.5415 19.6291C18.7413 20.0574 18.0592 20.6767 17.556 21.432L16.1848 20.5163C16.8387 19.5353 17.7246 18.7309 18.764 18.1745C19.8033 17.6181 20.964 17.3269 22.1429 17.3268H22.5125C22.7313 17.3268 22.9412 17.4138 23.0959 17.5685C23.2506 17.7232 23.3375 17.933 23.3375 18.1518C23.3375 18.3706 23.2506 18.5805 23.0959 18.7352C22.9412 18.8899 22.7313 18.9768 22.5125 18.9768H22.1429ZM27.4015 21.7587C28.3955 23.2495 28.926 25.0011 28.926 26.7928V28.4989C28.926 28.7177 29.013 28.9276 29.1677 29.0823C29.3224 29.237 29.5322 29.3239 29.751 29.3239C29.9698 29.3239 30.1797 29.237 30.3344 29.0823C30.4891 28.9276 30.576 28.7177 30.576 28.4989V26.7928C30.5757 24.6757 29.9488 22.6061 28.7742 20.8446L28.5548 20.5146C28.4331 20.3326 28.2442 20.2063 28.0294 20.1636C27.8147 20.1209 27.5917 20.1653 27.4097 20.2869C27.2277 20.4086 27.1014 20.5976 27.0587 20.8123C27.016 21.0271 27.0604 21.25 27.182 21.432L27.4015 21.7587Z" fill="#003B95"/>
<path fill-rule="evenodd" clip-rule="evenodd" d="M22.5969 18.9768C23.5045 18.9767 24.3981 19.2007 25.1983 19.6291C25.9986 20.0574 26.6806 20.6767 27.1839 21.432L28.5566 20.5163C27.9027 19.535 27.0165 18.7305 25.9768 18.1741C24.9371 17.6177 23.7761 17.3267 22.5969 17.3268H22.2256C22.0068 17.3268 21.797 17.4138 21.6423 17.5685C21.4876 17.7232 21.4006 17.933 21.4006 18.1518C21.4006 18.3706 21.4876 18.5805 21.6423 18.7352C21.797 18.8899 22.0068 18.9768 22.2256 18.9768H22.5969Z" fill="#003B95"/>
<path fill-rule="evenodd" clip-rule="evenodd" d="M22.275 17.3263C22.7626 17.3263 23.2453 17.2303 23.6957 17.0437C24.1462 16.8571 24.5554 16.5837 24.9002 16.2389C25.2449 15.8942 25.5183 15.4849 25.7049 15.0345C25.8915 14.5841 25.9875 14.1013 25.9875 13.6138C25.9875 13.1263 25.8915 12.6435 25.7049 12.1931C25.5183 11.7427 25.2449 11.3334 24.9002 10.9887C24.5554 10.644 24.1462 10.3705 23.6957 10.1839C23.2453 9.99736 22.7626 9.90134 22.275 9.90134C21.2904 9.90134 20.3461 10.2925 19.6499 10.9887C18.9537 11.6849 18.5626 12.6292 18.5626 13.6138C18.5626 14.5984 18.9537 15.5427 19.6499 16.2389C20.3461 16.9352 21.2904 17.3263 22.275 17.3263ZM22.275 18.9763C23.6972 18.9763 25.0612 18.4113 26.0669 17.4057C27.0725 16.4 27.6375 15.036 27.6375 13.6138C27.6375 12.1916 27.0725 10.8276 26.0669 9.82198C25.0612 8.81632 23.6972 8.25135 22.275 8.25135C20.8528 8.25135 19.4889 8.81632 18.4832 9.82198C17.4775 10.8276 16.9126 12.1916 16.9126 13.6138C16.9126 15.036 17.4775 16.4 18.4832 17.4057C19.4889 18.4113 20.8528 18.9763 22.275 18.9763Z" fill="#003B95"/>
</svg>
