<svg width="33" height="33" viewBox="0 0 33 33" fill="none" xmlns="http://www.w3.org/2000/svg">
<g clip-path="url(#clip0_993_5596)">
<path d="M26.4195 9.92617L26.4057 9.93992L26.7946 10.3288C27.3134 10.8476 27.6373 11.5752 27.6373 12.3737V25.4361C27.6373 25.8153 27.5626 26.1908 27.4175 26.5411C27.2724 26.8914 27.0597 27.2097 26.7916 27.4778C26.5234 27.746 26.2051 27.9587 25.8548 28.1038C25.5045 28.2489 25.129 28.3236 24.7498 28.3236C23.984 28.3236 23.2496 28.0194 22.708 27.4778C22.1665 26.9363 21.8623 26.2019 21.8623 25.4361V18.5611V18.0111H21.3123H19.2498H18.6998V18.5611V28.3236H6.04992V6.8737C6.04992 6.29023 6.2817 5.73065 6.69428 5.31807C7.10685 4.9055 7.66643 4.67371 8.2499 4.67371H16.4999C17.0833 4.67371 17.6429 4.9055 18.0555 5.31807C18.4681 5.73065 18.6998 6.29023 18.6998 6.8737V16.4986V17.0486H19.2498H20.6248C21.2083 17.0486 21.7679 17.2804 22.1805 17.693C22.593 18.1056 22.8248 18.6652 22.8248 19.2486V25.4361C22.8248 25.9466 23.0276 26.4363 23.3886 26.7973C23.7496 27.1583 24.2393 27.3611 24.7498 27.3611C25.2603 27.3611 25.75 27.1583 26.111 26.7973C26.472 26.4363 26.6748 25.9466 26.6748 25.4361V15.5224V14.6954L25.9121 15.0152C25.5416 15.1706 25.1602 15.2611 24.7498 15.2611C23.984 15.2611 23.2496 14.9569 22.708 14.4154C22.4399 14.1473 22.2272 13.829 22.0821 13.4787C21.937 13.1283 21.8623 12.7529 21.8623 12.3737C21.8623 11.141 22.6329 10.101 23.7228 9.68355L24.5143 9.3804L23.915 8.78103L21.4026 6.2687L22.0823 5.58902L26.4195 9.92617ZM16.4999 26.6736H17.0499V26.1236V18.5611V16.4986V15.9486H16.4999H8.2499H7.69991V16.4986V26.1236V26.6736H8.2499H16.4999ZM16.4999 14.2987H17.0499V13.7487V6.8737V6.3237H16.4999H8.2499H7.69991V6.8737V13.7487V14.2987H8.2499H16.4999ZM23.3886 11.0125L23.7775 11.4014L23.3886 11.0125C23.0276 11.3735 22.8248 11.8631 22.8248 12.3737C22.8248 12.8842 23.0276 13.3738 23.3886 13.7348C23.7496 14.0958 24.2393 14.2987 24.7498 14.2987C25.2603 14.2987 25.75 14.0958 26.111 13.7348C26.472 13.3738 26.6748 12.8842 26.6748 12.3737C26.6748 11.8631 26.472 11.3735 26.111 11.0125C25.75 10.6515 25.2603 10.4487 24.7498 10.4487C24.2393 10.4487 23.7496 10.6515 23.3886 11.0125Z" fill="#003B95" stroke="#003B95" stroke-width="1.09747"/>
</g>
<defs>
<clipPath id="clip0_993_5596">
<rect width="32.9241" height="32.9241" fill="white" transform="scale(1.0023)"/>
</clipPath>
</defs>
</svg>
