<svg width="32" height="30" viewBox="0 0 32 30" fill="none" xmlns="http://www.w3.org/2000/svg">
<path d="M15 20.8694H16.3045V30H15V20.8694ZM5.86963 18.2609H25.4348V19.5651H5.86963V18.2609ZM28.0436 9.78254C26.2454 9.78254 24.7825 8.31968 24.7825 6.52177C24.7825 4.7236 26.2454 3.26074 28.0436 3.26074C29.8415 3.26074 31.3043 4.7236 31.3043 6.52177C31.3043 8.31968 29.8415 9.78254 28.0436 9.78254ZM28.0436 4.56525C26.9647 4.56525 26.087 5.44293 26.087 6.52177C26.087 7.60029 26.9647 8.47828 28.0436 8.47828C29.1221 8.47828 30.0001 7.60029 30.0001 6.52177C30.0001 5.44293 29.1221 4.56525 28.0436 4.56525Z" fill="#003B95"/>
<path d="M21.5215 30.0001C21.4356 30.0001 21.3481 29.9836 21.2645 29.9471C20.9333 29.805 20.7799 29.4216 20.9223 29.0908L22.8788 24.5256C22.929 24.4082 23.0125 24.3082 23.1191 24.238C23.2256 24.1678 23.3504 24.1304 23.478 24.1305H28.0433C29.1219 24.1305 29.9998 23.2525 29.9998 22.174V13.6957C29.9998 12.9763 29.4147 12.3914 28.6953 12.3914H28.0433C27.5855 12.3914 27.1687 12.6941 26.6072 13.4375C25.9772 14.2696 24.0651 16.6173 23.9841 16.7164C23.9228 16.7914 23.8456 16.8519 23.7581 16.8934C23.6706 16.9349 23.5749 16.9565 23.478 16.9565H20.2173C19.8571 16.9565 19.565 17.2488 19.565 17.6087V18.913C19.5651 18.9987 19.5482 19.0835 19.5155 19.1627C19.4827 19.2418 19.4347 19.3138 19.3741 19.3743C19.3135 19.4349 19.2416 19.483 19.1624 19.5157C19.0833 19.5485 18.9984 19.5653 18.9128 19.5652C18.8271 19.5653 18.7423 19.5485 18.6631 19.5157C18.584 19.4829 18.512 19.4349 18.4515 19.3743C18.3909 19.3137 18.3429 19.2418 18.3102 19.1626C18.2774 19.0835 18.2606 18.9986 18.2607 18.913V17.6087C18.2607 16.5299 19.1384 15.6522 20.2173 15.6522H23.1676C23.6815 15.0195 25.0667 13.3109 25.5664 12.6503C26.1174 11.9223 26.8959 11.0869 28.0433 11.0869H28.6953C30.134 11.0869 31.3041 12.257 31.3041 13.6957V22.174C31.3041 23.9719 29.8412 25.4348 28.0433 25.4348H23.9079L22.1208 29.6048C22.0152 29.852 21.7745 30.0001 21.5215 30.0001Z" fill="#003B95"/>
<path d="M18.9131 29.9998C18.8452 29.9998 18.7755 29.9886 18.707 29.9659C18.3659 29.8525 18.1808 29.4833 18.295 29.1407L20.4575 22.6524C20.8116 21.5868 21.8067 20.8693 22.9319 20.8693H24.7826V18.9128C24.7826 18.5521 25.0743 18.2607 25.4349 18.2607C25.7955 18.2607 26.0871 18.5521 26.0871 18.9128V21.5215C26.0872 21.6072 26.0704 21.692 26.0376 21.7712C26.0048 21.8504 25.9568 21.9223 25.8962 21.9829C25.8356 22.0435 25.7637 22.0915 25.6845 22.1243C25.6054 22.157 25.5205 22.1738 25.4349 22.1738H22.9319C22.3697 22.1738 21.872 22.5318 21.6952 23.0646L19.5321 29.5537C19.4887 29.6836 19.4056 29.7965 19.2945 29.8765C19.1834 29.9566 19.05 29.9997 18.9131 29.9998Z" fill="#003B95"/>
<path d="M25.434 19.5651C25.2979 19.5651 25.1608 19.5229 25.0435 19.4347C24.7552 19.2188 24.6965 18.8099 24.9129 18.5224L26.8694 15.9136C27.0853 15.6253 27.4942 15.5673 27.782 15.7832C28.0702 15.9991 28.1287 16.408 27.9123 16.6955L25.9558 19.3043C25.8285 19.4751 25.633 19.5651 25.434 19.5651ZM3.26078 9.78254C1.46286 9.78254 0 8.31968 0 6.52177C0 4.7236 1.46286 3.26074 3.26078 3.26074C5.05894 3.26074 6.5218 4.7236 6.5218 6.52177C6.5218 8.31968 5.05894 9.78254 3.26078 9.78254ZM3.26078 4.56525C2.18225 4.56525 1.30426 5.44293 1.30426 6.52177C1.30426 7.6003 2.18225 8.47828 3.26078 8.47828C4.33961 8.47828 5.21729 7.6003 5.21729 6.52177C5.21729 5.44293 4.33961 4.56525 3.26078 4.56525ZM9.78258 30C9.52964 30 9.28893 29.8519 9.1834 29.6047L7.39612 25.4347H3.26078C1.46286 25.4347 0 23.9718 0 22.1739V13.6956C0 12.2569 1.17006 11.0868 2.60877 11.0868H3.26078C4.40815 11.0868 5.18746 11.9222 5.73724 12.6502C6.23737 13.3108 7.62185 15.0194 8.13581 15.6521H11.0868C12.1657 15.6521 13.0434 16.5298 13.0434 17.6086V18.9129C13.0434 19.2735 12.7513 19.5651 12.3914 19.5651C12.0312 19.5651 11.7391 19.2735 11.7391 18.9129V17.6086C11.7391 17.2487 11.4462 16.9564 11.0868 16.9564H7.82606C7.6298 16.9564 7.44467 16.8685 7.32067 16.7163C7.23972 16.6173 5.32692 14.2694 4.6976 13.4367C4.1354 12.6939 3.71934 12.3913 3.26078 12.3913H2.60877C1.88938 12.3913 1.30426 12.9762 1.30426 13.6956V22.1739C1.30426 23.2524 2.18225 24.1304 3.26078 24.1304H7.82606C7.95365 24.1303 8.07846 24.1677 8.18498 24.2379C8.2915 24.3081 8.37505 24.4081 8.42525 24.5254L10.3818 29.0907C10.5242 29.4215 10.3701 29.8049 10.0396 29.947C9.95848 29.9822 9.87098 30.0002 9.78258 30Z" fill="#003B95"/>
<path d="M12.3913 29.9998C12.2544 29.9997 12.121 29.9566 12.0099 29.8765C11.8988 29.7965 11.8157 29.6836 11.7723 29.5537L9.60966 23.0651C9.52326 22.8054 9.35723 22.5795 9.13516 22.4195C8.91308 22.2595 8.64624 22.1735 8.37253 22.1738H5.86954C5.5096 22.1738 5.21729 21.8821 5.21729 21.5215V18.9128C5.21729 18.5521 5.5096 18.2607 5.86954 18.2607C6.22948 18.2607 6.52179 18.5521 6.52179 18.9128V20.8693H8.37253C8.92014 20.8686 9.45401 21.0406 9.89832 21.3607C10.3426 21.6808 10.6748 22.1328 10.8475 22.6524L13.0102 29.1407C13.1243 29.4825 12.9397 29.8524 12.5979 29.9659C12.5313 29.9881 12.4616 29.9996 12.3913 29.9998Z" fill="#003B95"/>
<path d="M5.8704 19.5652C5.76902 19.5653 5.66901 19.5418 5.5783 19.4965C5.48759 19.4512 5.40868 19.3854 5.34783 19.3043L3.39131 16.6956C3.17487 16.408 3.23369 15.9992 3.52197 15.7833C3.81141 15.5673 4.21959 15.6254 4.43499 15.9136L6.39151 18.5224C6.60795 18.8099 6.54913 19.2188 6.26085 19.4347C6.14832 19.5195 6.01126 19.5653 5.8704 19.5652ZM20.8695 16.9564C20.7839 16.9565 20.6991 16.9397 20.6199 16.9069C20.5408 16.8742 20.4689 16.8262 20.4083 16.7656C20.3477 16.7051 20.2997 16.6331 20.267 16.554C20.2343 16.4749 20.2174 16.39 20.2175 16.3044V11.7391C20.2175 10.3004 19.0475 9.13033 17.6088 9.13033H13.6957C12.257 9.13033 11.087 10.3004 11.087 11.7391V13.6956C11.087 14.0556 10.7949 14.3479 10.435 14.3479C10.0748 14.3479 9.7827 14.0556 9.7827 13.6956V11.7391C9.7827 9.581 11.5376 7.82607 13.6957 7.82607H17.6088C19.7669 7.82607 21.5218 9.581 21.5218 11.7391V16.3044C21.5218 16.665 21.2302 16.9564 20.8695 16.9564ZM15.6523 6.5218C13.8543 6.5218 12.3915 5.05894 12.3915 3.26078C12.3915 1.46286 13.8543 0 15.6523 0C17.4502 0 18.913 1.46286 18.913 3.26078C18.913 5.05894 17.4502 6.5218 15.6523 6.5218ZM15.6523 1.30426C14.5734 1.30426 13.6957 2.18225 13.6957 3.26078C13.6957 4.33961 14.5734 5.2173 15.6523 5.2173C16.7311 5.2173 17.6088 4.33961 17.6088 3.26078C17.6088 2.18225 16.7311 1.30426 15.6523 1.30426Z" fill="#003B95"/>
</svg>
