<svg width="31" height="31" viewBox="0 0 31 31" fill="none" xmlns="http://www.w3.org/2000/svg">
<path d="M25.8335 15.8545C25.8335 16.3449 25.469 16.7503 24.9962 16.8144L24.8647 16.8232L5.48975 16.8232C4.95472 16.8232 4.521 16.3895 4.521 15.8545C4.521 15.3641 4.88545 14.9587 5.3583 14.8946L5.48975 14.8857L24.8647 14.8857C25.3998 14.8857 25.8335 15.3195 25.8335 15.8545Z" fill="#003B95"/>
<path d="M13.9877 22.95C14.3669 23.3276 14.3682 23.9409 13.9907 24.3201C13.6475 24.6647 13.1094 24.6972 12.7295 24.4166L12.6207 24.323L4.80608 16.542C4.46038 16.1978 4.42894 15.6577 4.71175 15.2779L4.80602 15.1691L12.6206 7.38682C12.9997 7.00928 13.6131 7.01055 13.9906 7.38965C14.3338 7.73429 14.364 8.27255 14.0818 8.65121L13.9878 8.75967L6.86291 15.8559L13.9877 22.95Z" fill="#003B95"/>
</svg>
