<svg width="8" height="11" viewBox="0 0 8 11" fill="none" xmlns="http://www.w3.org/2000/svg">
<path d="M4.00007 0C1.7886 0 0 1.70388 0 3.81059C0 6.08062 2.52576 9.21075 3.56578 10.4029C3.79435 10.6642 4.21151 10.6642 4.44008 10.4029C5.47438 9.21075 8.00014 6.08062 8.00014 3.81059C8.00014 1.70388 6.21154 0 4.00007 0ZM4.00007 5.17152C3.21149 5.17152 2.57147 4.56183 2.57147 3.81059C2.57147 3.05936 3.21149 2.44967 4.00007 2.44967C4.78866 2.44967 5.42867 3.05936 5.42867 3.81059C5.42867 4.56183 4.78866 5.17152 4.00007 5.17152Z" fill="white"/>
</svg>
