<svg width="14" height="15" viewBox="0 0 14 15" fill="none" xmlns="http://www.w3.org/2000/svg">
<path d="M13.1417 3.525L13.15 3.51667L10.05 0.416667L9.16667 1.3L10.925 3.05833C10.1417 3.35833 9.58333 4.10833 9.58333 5C9.58333 5.27359 9.63722 5.5445 9.74192 5.79726C9.84661 6.05002 10.0001 6.27968 10.1935 6.47314C10.5842 6.86384 11.1141 7.08333 11.6667 7.08333C11.9667 7.08333 12.2417 7.01667 12.5 6.90833V12.9167C12.5 13.1377 12.4122 13.3496 12.2559 13.5059C12.0996 13.6622 11.8877 13.75 11.6667 13.75C11.4457 13.75 11.2337 13.6622 11.0774 13.5059C10.9211 13.3496 10.8333 13.1377 10.8333 12.9167V9.16667C10.8333 8.72464 10.6577 8.30072 10.3452 7.98816C10.0326 7.67559 9.60869 7.5 9.16667 7.5H8.33333V1.66667C8.33333 1.22464 8.15774 0.800716 7.84518 0.488155C7.53262 0.175595 7.10869 0 6.66667 0H1.66667C1.22464 0 0.800716 0.175595 0.488155 0.488155C0.175595 0.800716 0 1.22464 0 1.66667V15H8.33333V8.75H9.58333V12.9167C9.58333 13.4692 9.80283 13.9991 10.1935 14.3898C10.5842 14.7805 11.1141 15 11.6667 15C11.9403 15 12.2112 14.9461 12.4639 14.8414C12.7167 14.7367 12.9464 14.5833 13.1398 14.3898C13.3333 14.1964 13.4867 13.9667 13.5914 13.7139C13.6961 13.4612 13.75 13.1903 13.75 12.9167V5C13.75 4.425 13.5167 3.9 13.1417 3.525ZM6.66667 8.75V13.3333H1.66667V7.5H6.66667V8.75ZM6.66667 5.83333H1.66667V1.66667H6.66667V5.83333ZM11.6667 5.83333C11.4457 5.83333 11.2337 5.74554 11.0774 5.58926C10.9211 5.43297 10.8333 5.22101 10.8333 5C10.8333 4.77899 10.9211 4.56702 11.0774 4.41074C11.2337 4.25446 11.4457 4.16667 11.6667 4.16667C11.8877 4.16667 12.0996 4.25446 12.2559 4.41074C12.4122 4.56702 12.5 4.77899 12.5 5C12.5 5.22101 12.4122 5.43297 12.2559 5.58926C12.0996 5.74554 11.8877 5.83333 11.6667 5.83333Z" fill="white"/>
<path d="M7.76754 8.75V14.4342H0.565789V1.66667C0.565789 1.3747 0.681774 1.09468 0.888229 0.888229C1.09468 0.681774 1.3747 0.565789 1.66667 0.565789H6.66667C6.95864 0.565789 7.23865 0.681774 7.4451 0.888229C7.65156 1.09468 7.76754 1.3747 7.76754 1.66667V7.5V8.06579H8.33333H9.16667C9.34085 8.06579 9.51078 8.10707 9.66337 8.18421H9.58333H8.33333H7.76754V8.75ZM10.1491 8.75V8.66996C10.2263 8.82256 10.2675 8.99248 10.2675 9.16667V12.9167C10.2675 13.2877 10.4149 13.6436 10.6773 13.906C10.9397 14.1684 11.2956 14.3158 11.6667 14.3158C12.0377 14.3158 12.3936 14.1684 12.656 13.906C12.9184 13.6436 13.0658 13.2877 13.0658 12.9167V6.90833V6.05754L12.2812 6.38657C12.0802 6.47084 11.8796 6.51754 11.6667 6.51754C11.2642 6.51754 10.8782 6.35766 10.5936 6.07306C10.4527 5.93215 10.3409 5.76486 10.2646 5.58074C10.1884 5.39662 10.1491 5.19929 10.1491 5C10.1491 4.35375 10.5524 3.80688 11.1274 3.5867L11.9417 3.27484L11.3251 2.65826L9.96681 1.3L10.05 1.21681L12.3498 3.51665L12.3415 3.52498L12.7416 3.92507C13.0138 4.19724 13.1842 4.57963 13.1842 5V12.9167C13.1842 13.116 13.145 13.3133 13.0687 13.4974C12.9924 13.6815 12.8806 13.8488 12.7397 13.9897C12.5988 14.1306 12.4315 14.2424 12.2474 14.3187C12.0633 14.395 11.866 14.4342 11.6667 14.4342C11.2642 14.4342 10.8782 14.2743 10.5936 13.9897C10.309 13.7051 10.1491 13.3191 10.1491 12.9167V8.75ZM6.66667 13.8991H7.23246V13.3333V8.75V7.5V6.93421H6.66667H1.66667H1.10088V7.5V13.3333V13.8991H1.66667H6.66667ZM6.66667 6.39912H7.23246V5.83333V1.66667V1.10088H6.66667H1.66667H1.10088V1.66667V5.83333V6.39912H1.66667H6.66667ZM10.6773 4.01067L11.0774 4.41074L10.6773 4.01067C10.415 4.27306 10.2675 4.62893 10.2675 5C10.2675 5.37107 10.415 5.72694 10.6773 5.98933L11.0774 5.58926L10.6773 5.98933C10.9397 6.25172 11.2956 6.39912 11.6667 6.39912C12.0377 6.39912 12.3936 6.25172 12.656 5.98933C12.9184 5.72694 13.0658 5.37107 13.0658 5C13.0658 4.62893 12.9184 4.27306 12.656 4.01067C12.3936 3.74828 12.0377 3.60088 11.6667 3.60088C11.2956 3.60088 10.9397 3.74828 10.6773 4.01067Z" stroke="white" stroke-opacity="0.5" stroke-width="1.13158"/>
</svg>
