<svg width="27" height="17" viewBox="0 0 27 17" fill="none" xmlns="http://www.w3.org/2000/svg">
<mask id="path-1-inside-1_993_5786" fill="white">
<path fill-rule="evenodd" clip-rule="evenodd" d="M0 8.50021C0 8.24976 0.0994921 8.00956 0.276589 7.83246C0.453686 7.65537 0.693882 7.55587 0.944335 7.55587H23.2174L17.2738 1.61412C17.0965 1.4368 16.9968 1.1963 16.9968 0.945528C16.9968 0.694758 17.0965 0.454259 17.2738 0.276939C17.4511 0.0996176 17.6916 5.90834e-09 17.9424 0C18.1931 -5.90834e-09 18.4336 0.0996176 18.611 0.276939L26.1656 7.83162C26.2536 7.91934 26.3233 8.02355 26.371 8.13828C26.4186 8.253 26.4431 8.376 26.4431 8.50021C26.4431 8.62442 26.4186 8.74741 26.371 8.86214C26.3233 8.97687 26.2536 9.08108 26.1656 9.1688L18.611 16.7235C18.4336 16.9008 18.1931 17.0004 17.9424 17.0004C17.6916 17.0004 17.4511 16.9008 17.2738 16.7235C17.0965 16.5462 16.9968 16.3057 16.9968 16.0549C16.9968 15.8041 17.0965 15.5636 17.2738 15.3863L23.2174 9.44454H0.944335C0.693882 9.44454 0.453686 9.34505 0.276589 9.16796C0.0994921 8.99086 0 8.75066 0 8.50021Z"/>
</mask>
<path fill-rule="evenodd" clip-rule="evenodd" d="M0 8.50021C0 8.24976 0.0994921 8.00956 0.276589 7.83246C0.453686 7.65537 0.693882 7.55587 0.944335 7.55587H23.2174L17.2738 1.61412C17.0965 1.4368 16.9968 1.1963 16.9968 0.945528C16.9968 0.694758 17.0965 0.454259 17.2738 0.276939C17.4511 0.0996176 17.6916 5.90834e-09 17.9424 0C18.1931 -5.90834e-09 18.4336 0.0996176 18.611 0.276939L26.1656 7.83162C26.2536 7.91934 26.3233 8.02355 26.371 8.13828C26.4186 8.253 26.4431 8.376 26.4431 8.50021C26.4431 8.62442 26.4186 8.74741 26.371 8.86214C26.3233 8.97687 26.2536 9.08108 26.1656 9.1688L18.611 16.7235C18.4336 16.9008 18.1931 17.0004 17.9424 17.0004C17.6916 17.0004 17.4511 16.9008 17.2738 16.7235C17.0965 16.5462 16.9968 16.3057 16.9968 16.0549C16.9968 15.8041 17.0965 15.5636 17.2738 15.3863L23.2174 9.44454H0.944335C0.693882 9.44454 0.453686 9.34505 0.276589 9.16796C0.0994921 8.99086 0 8.75066 0 8.50021Z" fill="#003B95"/>
<path d="M0 8.50021H-4.72771H0ZM23.2174 7.55587V12.2836H34.6337L26.5599 4.21235L23.2174 7.55587ZM17.2738 1.61412L13.9308 4.95711L13.9313 4.95764L17.2738 1.61412ZM16.9968 0.945528L12.2691 0.945528L16.9968 0.945528ZM18.611 0.276939L21.9539 -3.06605L18.611 0.276939ZM26.1656 7.83162L22.8226 11.1746L22.8269 11.1788L26.1656 7.83162ZM26.1656 9.1688L22.8269 5.82158L22.8226 5.82581L26.1656 9.1688ZM18.611 16.7235L21.9539 20.0665L18.611 16.7235ZM17.9424 17.0004V12.2727V17.0004ZM17.2738 15.3863L13.9313 12.0428L13.9308 12.0433L17.2738 15.3863ZM23.2174 9.44454L26.5599 12.7881L34.6337 4.71684H23.2174V9.44454ZM4.72771 8.50021C4.72771 9.50363 4.3291 10.4659 3.61958 11.1755L-3.0664 4.48947C-4.13011 5.55318 -4.72771 6.99589 -4.72771 8.50021H4.72771ZM3.61958 11.1755C2.91007 11.885 1.94776 12.2836 0.944335 12.2836V2.82817C-0.559998 2.82817 -2.0027 3.42577 -3.0664 4.48947L3.61958 11.1755ZM0.944335 12.2836H23.2174V2.82817H0.944335V12.2836ZM26.5599 4.21235L20.6162 -1.72941L13.9313 4.95764L19.875 10.8994L26.5599 4.21235ZM20.6168 -1.72887C21.3261 -1.01957 21.7245 -0.0575581 21.7245 0.945528L12.2691 0.945528C12.2691 2.45015 12.8668 3.89317 13.9308 4.95711L20.6168 -1.72887ZM21.7245 0.945528C21.7245 1.94861 21.3261 2.91063 20.6168 3.61993L13.9308 -3.06605C12.8668 -2.00211 12.2691 -0.559097 12.2691 0.945528L21.7245 0.945528ZM20.6168 3.61993C19.9075 4.32923 18.9455 4.72771 17.9424 4.72771V-4.72771C16.4377 -4.72771 14.9947 -4.12999 13.9308 -3.06605L20.6168 3.61993ZM17.9424 4.72771C16.9393 4.72771 15.9773 4.32923 15.268 3.61993L21.9539 -3.06605C20.89 -4.12999 19.447 -4.72771 17.9424 -4.72771V4.72771ZM15.268 3.61993L22.8226 11.1746L29.5086 4.48863L21.9539 -3.06605L15.268 3.61993ZM22.8269 11.1788C22.4745 10.8274 22.195 10.4099 22.0043 9.95025L30.7376 6.3263C30.4517 5.63723 30.0326 5.01131 29.5044 4.4844L22.8269 11.1788ZM22.0043 9.95025C21.8135 9.49062 21.7154 8.99786 21.7154 8.50021H31.1708C31.1708 7.75413 31.0236 7.01539 30.7376 6.3263L22.0043 9.95025ZM21.7154 8.50021C21.7154 8.00256 21.8135 7.5098 22.0043 7.05017L30.7376 10.6741C31.0236 9.98502 31.1708 9.24629 31.1708 8.50021H21.7154ZM22.0043 7.05017C22.195 6.59055 22.4745 6.17304 22.8269 5.82158L29.5044 12.516C30.0326 11.9891 30.4517 11.3632 30.7376 10.6741L22.0043 7.05017ZM22.8226 5.82581L15.268 13.3805L21.9539 20.0665L29.5086 12.5118L22.8226 5.82581ZM15.268 13.3805C15.9773 12.6712 16.9393 12.2727 17.9424 12.2727V21.7281C19.447 21.7281 20.89 21.1304 21.9539 20.0665L15.268 13.3805ZM17.9424 12.2727C18.9455 12.2727 19.9075 12.6712 20.6168 13.3805L13.9308 20.0665C14.9947 21.1304 16.4377 21.7281 17.9424 21.7281V12.2727ZM20.6168 13.3805C21.3261 14.0898 21.7245 15.0518 21.7245 16.0549H12.2691C12.2691 17.5595 12.8668 19.0025 13.9308 20.0665L20.6168 13.3805ZM21.7245 16.0549C21.7245 17.058 21.3261 18.02 20.6168 18.7293L13.9308 12.0433C12.8668 13.1073 12.2691 14.5503 12.2691 16.0549H21.7245ZM20.6162 18.7298L26.5599 12.7881L19.875 6.10102L13.9313 12.0428L20.6162 18.7298ZM23.2174 4.71684H0.944335V14.1723H23.2174V4.71684ZM0.944335 4.71684C1.94774 4.71684 2.91006 5.11544 3.61958 5.82496L-3.0664 12.5109C-2.00268 13.5747 -0.559975 14.1723 0.944335 14.1723V4.71684ZM3.61958 5.82496C4.3291 6.53449 4.72771 7.4968 4.72771 8.50021H-4.72771C-4.72771 10.0045 -4.13012 11.4472 -3.0664 12.5109L3.61958 5.82496Z" fill="#003B95" mask="url(#path-1-inside-1_993_5786)"/>
</svg>
