<svg width="20" height="21" viewBox="0 0 20 21" fill="none" xmlns="http://www.w3.org/2000/svg">
<g clip-path="url(#clip0_993_6494)">
<path d="M15 11.1259H10.8333V15.4052C10.8333 15.876 10.4583 16.2611 9.99995 16.2611C9.54162 16.2611 9.16662 15.876 9.16662 15.4052V11.1259H4.99993C4.5416 11.1259 4.16659 10.7408 4.16659 10.2701C4.16659 9.79937 4.5416 9.41423 4.99993 9.41423H9.16662V5.13493C9.16662 4.66421 9.54162 4.27907 9.99995 4.27907C10.4583 4.27907 10.8333 4.66421 10.8333 5.13493V9.41423H15C15.4583 9.41423 15.8333 9.79937 15.8333 10.2701C15.8333 10.7408 15.4583 11.1259 15 11.1259Z" fill="white"/>
</g>
<defs>
<clipPath id="clip0_993_6494">
<rect width="19.5789" height="20.1081" fill="white" transform="scale(1.02151)"/>
</clipPath>
</defs>
</svg>
