<svg width="37" height="30" viewBox="0 0 37 30" fill="none" xmlns="http://www.w3.org/2000/svg">
<path d="M18.1711 30C19.4699 30 20.5227 28.9471 20.5227 27.6484C20.5227 26.3497 19.4699 25.2969 18.1711 25.2969C16.8724 25.2969 15.8196 26.3497 15.8196 27.6484C15.8196 28.9471 16.8724 30 18.1711 30Z" fill="#003B95"/>
<path d="M36.102 7.79316C31.4182 2.76777 25.0756 7.12589e-05 18.242 0C11.409 7.12589e-05 5.06649 2.76777 0.382568 7.79316C-0.154012 8.36893 -0.122302 9.27078 0.45347 9.80743C1.02931 10.344 1.93109 10.3124 2.46775 9.73653C6.60646 5.29596 12.2086 2.85043 18.2425 2.85036C24.276 2.85043 29.8781 5.29596 34.0168 9.73653C34.1501 9.87984 34.3115 9.99408 34.4909 10.0721C34.6704 10.1502 34.864 10.1903 35.0597 10.19C35.4077 10.19 35.7565 10.0633 36.0311 9.80743C36.6069 9.27071 36.6387 8.36893 36.102 7.79316Z" fill="#003B95"/>
<path d="M30.8689 13.6789C27.4066 10.1905 22.9224 8.26939 18.2421 8.26953C13.5607 8.2696 9.07637 10.1907 5.61518 13.679C5.06078 14.2378 5.06427 15.1401 5.62302 15.6945C6.18176 16.2489 7.08411 16.2454 7.63851 15.6867C10.5605 12.7418 14.3262 11.12 18.2421 11.1199C22.1569 11.1198 25.9226 12.7417 28.8457 15.6868C28.978 15.8205 29.1356 15.9266 29.3093 15.9989C29.4829 16.0712 29.6692 16.1083 29.8573 16.108C30.2335 16.1085 30.5946 15.9597 30.8613 15.6944C31.4199 15.1399 31.4233 14.2375 30.8689 13.6789ZM25.1651 19.5815C23.3109 17.7446 20.6532 16.6035 18.2288 16.6035H18.124C15.6995 16.6035 13.0416 17.7446 11.1875 19.5815C10.6284 20.1355 10.6242 21.0379 11.1782 21.597C11.3105 21.731 11.4682 21.8373 11.642 21.9097C11.8158 21.9822 12.0023 22.0194 12.1906 22.0192C12.5664 22.0197 12.927 21.8713 13.1936 21.6064C14.5135 20.2987 16.4487 19.4539 18.1241 19.4539H18.2286C19.9038 19.4539 21.8391 20.2988 23.1589 21.6064C23.718 22.1603 24.6205 22.1564 25.1744 21.597C25.7285 21.0379 25.7243 20.1355 25.1651 19.5815Z" fill="#003B95"/>
</svg>
