<svg width="22" height="22" viewBox="0 0 22 22" fill="none" xmlns="http://www.w3.org/2000/svg">
<path d="M7.33309 20.1667H14.6664C18.3514 20.1667 19.0114 18.6908 19.2039 16.8942L19.8914 9.56083C20.1389 7.32417 19.4973 5.5 15.5831 5.5H6.41643C2.50226 5.5 1.86059 7.32417 2.10809 9.56083L2.79559 16.8942C2.98809 18.6908 3.64809 20.1667 7.33309 20.1667Z" stroke="#003B95" stroke-width="1.5" stroke-miterlimit="10" stroke-linecap="round" stroke-linejoin="round"/>
<path d="M7.3335 5.50016V4.76683C7.3335 3.14433 7.3335 1.8335 10.2668 1.8335H11.7335C14.6668 1.8335 14.6668 3.14433 14.6668 4.76683V5.50016" stroke="#003B95" stroke-width="1.5" stroke-miterlimit="10" stroke-linecap="round" stroke-linejoin="round"/>
<path d="M12.8332 11.9167V12.8333C12.8332 12.8425 12.8332 12.8425 12.8332 12.8517C12.8332 13.8508 12.824 14.6667 10.9998 14.6667C9.18484 14.6667 9.1665 13.86 9.1665 12.8608V11.9167C9.1665 11 9.1665 11 10.0832 11H11.9165C12.8332 11 12.8332 11 12.8332 11.9167Z" stroke="#003B95" stroke-width="1.5" stroke-miterlimit="10" stroke-linecap="round" stroke-linejoin="round"/>
<path d="M19.846 10.0835C17.7285 11.6235 15.3085 12.5402 12.8335 12.8518" stroke="#003B95" stroke-width="1.5" stroke-miterlimit="10" stroke-linecap="round" stroke-linejoin="round"/>
<path d="M2.40186 10.3311C4.46436 11.7427 6.79269 12.5952 9.16686 12.8611" stroke="#003B95" stroke-width="1.5" stroke-miterlimit="10" stroke-linecap="round" stroke-linejoin="round"/>
</svg>
