<svg width="39" height="30" viewBox="0 0 39 30" fill="none" xmlns="http://www.w3.org/2000/svg">
<path d="M0.879219 22.7926C1.1662 22.7908 1.45286 22.812 1.73646 22.8559C1.75932 22.863 1.78306 22.8656 1.80679 22.87C2.41287 22.9924 2.98963 23.2307 3.50545 23.5716C4.54898 24.2638 5.77914 24.6206 7.03111 24.5941C8.26957 24.6236 9.48744 24.2738 10.5216 23.5918C10.5335 23.5857 10.5452 23.5793 10.5568 23.5725C11.328 23.0427 12.2467 22.7698 13.1821 22.7926C14.1199 22.7716 15.0408 23.044 15.8163 23.5716C16.8563 24.2643 18.0838 24.6212 19.3331 24.5941C20.5849 24.6181 21.8146 24.2619 22.8597 23.5725C23.6309 23.0427 24.5496 22.7697 25.485 22.7926C26.4286 22.7725 27.3548 23.048 28.1341 23.5804C29.175 24.2661 30.3995 24.6196 31.6457 24.5941C32.4856 24.6127 33.3202 24.457 34.097 24.1369C34.467 23.9734 34.8253 23.7848 35.1696 23.5725C35.9494 23.0517 36.8688 22.7797 37.8064 22.7926C38.0396 22.7926 38.2632 22.7 38.4281 22.5351C38.593 22.3702 38.6856 22.1466 38.6856 21.9134C38.6856 21.6802 38.593 21.4566 38.4281 21.2917C38.2632 21.1268 38.0396 21.0342 37.8064 21.0342C37.4645 21.0301 37.1227 21.0542 36.7848 21.1063C35.8912 21.2396 35.0369 21.5637 34.2799 22.0567C34.0003 22.23 33.7095 22.3845 33.4094 22.5192C32.8503 22.7474 32.2493 22.8552 31.6457 22.8357C30.6995 22.8594 29.7701 22.5823 28.9914 22.0444C28.2536 21.5682 27.4248 21.2508 26.5577 21.1124L19.3129 10.5328L28.5966 5.88612C29.005 5.68215 29.3636 5.39101 29.6471 5.03325C29.9307 4.6755 30.1322 4.25986 30.2376 3.81569C30.3429 3.37151 30.3494 2.90963 30.2567 2.46266C30.1639 2.01568 29.9742 1.59452 29.7009 1.2289C29.2627 0.66352 28.6462 0.262842 27.9516 0.0919066C27.2571 -0.079029 26.5251 -0.0101872 25.8745 0.287257L13.0485 6.35826C12.6027 6.56946 12.2054 6.87049 11.8815 7.24247C11.5576 7.61445 11.314 8.04935 11.1661 8.5199C11.0181 8.99045 10.969 9.48649 11.0218 9.9769C11.0746 10.4673 11.2282 10.9415 11.4729 11.3698L13.1777 14.4014L1.80504 21.0948C1.49802 21.0552 1.18878 21.0352 0.879219 21.0351C0.646035 21.0351 0.422403 21.1277 0.257517 21.2926C0.0926317 21.4575 0 21.6811 0 21.9143C0 22.1475 0.0926317 22.3711 0.257517 22.536C0.422403 22.7009 0.646035 22.7926 0.879219 22.7926ZM14.0737 15.9136C14.4763 15.6759 14.769 15.289 14.8884 14.8369C15.0077 14.3848 14.944 13.9039 14.7111 13.4984L12.9984 10.4959C12.8742 10.278 12.7964 10.0368 12.7698 9.78743C12.7432 9.53807 12.7684 9.2859 12.8437 9.04671C12.9191 8.80752 13.043 8.58647 13.2077 8.39739C13.3725 8.20832 13.5745 8.05529 13.8011 7.94789L26.6254 1.87776C26.8564 1.76592 27.1145 1.72221 27.3694 1.75177C27.6244 1.78133 27.8656 1.88293 28.0649 2.04467C28.2642 2.2064 28.4133 2.42158 28.4947 2.66498C28.5761 2.90839 28.5864 3.16996 28.5245 3.41903C28.4798 3.61158 28.3927 3.79171 28.2695 3.94626C28.1463 4.10081 27.9901 4.22588 27.8123 4.31232L18.5322 8.95723C18.3044 9.06884 18.1033 9.22811 17.9425 9.42426C17.7817 9.62041 17.665 9.84884 17.6002 10.0941C17.5348 10.342 17.5234 10.6012 17.567 10.8539C17.6105 11.1066 17.7079 11.3471 17.8525 11.5588L24.4221 21.1116C23.5465 21.2497 22.7102 21.5718 21.9682 22.0567C21.1944 22.5881 20.2723 22.8608 19.334 22.8357C18.3907 22.8581 17.4645 22.5811 16.6885 22.0444C15.6487 21.361 14.4261 21.0087 13.1821 21.0342C11.9402 21.0071 10.7197 21.3599 9.68371 22.0453L9.64327 22.0681C8.87566 22.5939 7.9611 22.8626 7.03111 22.8357C6.09195 22.8583 5.16949 22.5848 4.39434 22.0541C4.27124 21.982 4.14288 21.909 4.01275 21.836L14.0737 15.9136ZM37.8064 26.4387C36.5556 26.4132 35.3267 26.7692 34.2834 27.4595C33.4986 27.9689 32.5831 28.2401 31.6475 28.2401C30.7119 28.2401 29.7963 27.9689 29.0116 27.4595C27.9577 26.7927 26.7361 26.4387 25.489 26.4387C24.2418 26.4387 23.0203 26.7927 21.9664 27.4595C21.1923 27.9895 20.2711 28.2626 19.3331 28.2403C18.396 28.2627 17.4757 27.9895 16.7025 27.4595C15.6608 26.7693 14.4333 26.4132 13.1839 26.4387C11.9336 26.413 10.7053 26.7691 9.66261 27.4595C8.88885 27.9896 7.96789 28.2627 7.03023 28.2403C6.09288 28.2626 5.17225 27.9894 4.39873 27.4595C3.35664 26.7693 2.12889 26.4132 0.879219 26.4387C0.646035 26.4387 0.422403 26.5314 0.257517 26.6963C0.0926317 26.8611 0 27.0848 0 27.318C0 27.5511 0.0926317 27.7748 0.257517 27.9397C0.422403 28.1045 0.646035 28.1972 0.879219 28.1972C1.81658 28.1748 2.73722 28.448 3.51072 28.9779C4.55309 29.6682 5.78115 30.0243 7.03111 29.9987C8.28076 30.024 9.50846 29.668 10.5506 28.9779C11.3244 28.4478 12.2453 28.1747 13.183 28.1972C14.1198 28.175 15.0398 28.4481 15.8127 28.9779C16.8547 29.6683 18.0826 30.0244 19.3323 29.9987C20.5828 30.0244 21.8114 29.6683 22.8544 28.9779C23.6385 28.4686 24.5535 28.1975 25.4886 28.1975C26.4236 28.1975 27.3386 28.4686 28.1227 28.9779C29.1769 29.6448 30.3987 29.9989 31.6462 29.9989C32.8936 29.9989 34.1154 29.6448 35.1696 28.9779C35.945 28.4477 36.8674 28.1746 37.8064 28.1972C38.0396 28.1972 38.2632 28.1045 38.4281 27.9397C38.593 27.7748 38.6856 27.5511 38.6856 27.318C38.6856 27.0848 38.593 26.8611 38.4281 26.6963C38.2632 26.5314 38.0396 26.4387 37.8064 26.4387Z" fill="#003B95"/>
<path d="M25.2185 13.8087C25.2187 15.0512 25.5873 16.2659 26.2777 17.2989C26.9682 18.332 27.9494 19.1372 29.0974 19.6126C30.2455 20.088 31.5087 20.2124 32.7274 19.9699C33.946 19.7275 35.0655 19.1291 35.9441 18.2505C36.8227 17.3719 37.4211 16.2524 37.6635 15.0337C37.906 13.8151 37.7816 12.5519 37.3062 11.4038C36.8308 10.2558 36.0256 9.27457 34.9925 8.58413C33.9595 7.89369 32.7448 7.52508 31.5023 7.5249C29.8364 7.52676 28.2392 8.18943 27.0613 9.36749C25.8835 10.5455 25.2201 12.1428 25.2185 13.8087ZM31.5023 9.28334C32.3971 9.28334 33.2719 9.5487 34.0159 10.0458C34.76 10.543 35.3399 11.2496 35.6823 12.0764C36.0248 12.9031 36.1144 13.8128 35.9398 14.6905C35.7652 15.5681 35.3343 16.3743 34.7016 17.0071C34.0688 17.6398 33.2626 18.0707 32.385 18.2453C31.5073 18.4199 30.5976 18.3303 29.7708 17.9879C28.9441 17.6454 28.2375 17.0655 27.7403 16.3215C27.2432 15.5774 26.9778 14.7027 26.9778 13.8078C26.9792 12.6083 27.4563 11.4583 28.3045 10.6101C29.1527 9.76187 30.3028 9.28474 31.5023 9.28334Z" fill="#003B95"/>
</svg>
