<svg width="17" height="17" viewBox="0 0 17 17" fill="none" xmlns="http://www.w3.org/2000/svg">
<path d="M7.39148 13.3263C7.80631 13.7411 7.80631 14.4137 7.39148 14.8285C6.97665 15.2434 6.30408 15.2434 5.88925 14.8285L0.311123 9.25041C0.197912 9.13719 0.115597 9.00479 0.0641786 8.86366C0.030254 8.77077 0.00892786 8.67182 0.00226711 8.56887C-0.000556148 8.52559 -0.000742531 8.48218 0.00170797 8.43889C0.00848144 8.31796 0.0354801 8.20244 0.079378 8.09565C0.125314 7.98366 0.191187 7.87793 0.276997 7.78389C0.289392 7.77029 0.302135 7.75702 0.315213 7.74408L5.88925 2.17004C6.30408 1.75521 6.97665 1.75521 7.39148 2.17004C7.80631 2.58487 7.80631 3.25745 7.39148 3.67228L3.62676 7.437H15.9373C16.5239 7.437 16.9995 7.91258 16.9995 8.49924C16.9995 9.0859 16.5239 9.56148 15.9373 9.56148H3.62667L7.39148 13.3263Z" fill="#003B95"/>
</svg>
