<svg width="31" height="31" viewBox="0 0 31 31" fill="none" xmlns="http://www.w3.org/2000/svg">
<path d="M25.8333 15.854C25.8333 16.3444 25.4688 16.7498 24.996 16.8139L24.8645 16.8228L5.4895 16.8228C4.95448 16.8228 4.52075 16.389 4.52075 15.854C4.52075 15.3636 4.8852 14.9582 5.35805 14.8941L5.4895 14.8853L24.8645 14.8853C25.3995 14.8853 25.8333 15.319 25.8333 15.854Z" fill="black"/>
<path d="M13.9872 22.9498C14.3664 23.3273 14.3677 23.9407 13.9902 24.3198C13.647 24.6645 13.1089 24.6969 12.729 24.4163L12.6202 24.3228L4.80559 16.5418C4.4599 16.1976 4.42845 15.6575 4.71126 15.2777L4.80554 15.1689L12.6201 7.38657C12.9992 7.00904 13.6126 7.01031 13.9901 7.38941C14.3334 7.73405 14.3635 8.2723 14.0813 8.65097L13.9873 8.75942L6.86243 15.8557L13.9872 22.9498Z" fill="black"/>
</svg>
