<svg width="9" height="13" viewBox="0 0 9 13" fill="none" xmlns="http://www.w3.org/2000/svg">
<path d="M4.35182 0C1.94589 0 0 2.08988 0 4.67386C0 7.45814 2.74786 11.2974 3.87934 12.7596C4.12801 13.0801 4.58185 13.0801 4.83052 12.7596C5.95578 11.2974 8.70364 7.45814 8.70364 4.67386C8.70364 2.08988 6.75776 0 4.35182 0ZM4.35182 6.34309C3.49389 6.34309 2.7976 5.59527 2.7976 4.67386C2.7976 3.75244 3.49389 3.00462 4.35182 3.00462C5.20975 3.00462 5.90604 3.75244 5.90604 4.67386C5.90604 5.59527 5.20975 6.34309 4.35182 6.34309Z" fill="#616161"/>
</svg>
