<svg width="20" height="20" viewBox="0 0 20 20" fill="none" xmlns="http://www.w3.org/2000/svg">
<path d="M19.3478 15.9346C19.3478 16.2721 19.2728 16.619 19.1134 16.9565C18.954 17.294 18.7477 17.6128 18.4759 17.9128C18.0165 18.4191 17.5102 18.7847 16.9383 19.0191C16.3758 19.2535 15.7664 19.3754 15.1101 19.3754C14.1538 19.3754 13.1319 19.1504 12.0537 18.691C10.9755 18.2316 9.89738 17.6128 8.82859 16.8347C7.75042 16.0471 6.7285 15.1752 5.75346 14.2095C4.7878 13.2345 3.91589 12.2126 3.13773 11.1438C2.36895 10.075 1.75017 9.00621 1.30015 7.94679C0.850136 6.878 0.625127 5.85608 0.625127 4.88104C0.625127 4.24352 0.737632 3.63412 0.962641 3.07159C1.18765 2.49969 1.54391 1.97467 2.04081 1.5059C2.64083 0.915255 3.29711 0.624619 3.99089 0.624619C4.2534 0.624619 4.51591 0.680871 4.7503 0.793375C4.99406 0.90588 5.20969 1.07464 5.37845 1.3184L7.55353 4.38415C7.72229 4.61853 7.84417 4.83416 7.92855 5.04042C8.01293 5.23731 8.05981 5.43419 8.05981 5.61232C8.05981 5.83733 7.99418 6.06234 7.86292 6.27797C7.74104 6.49361 7.56291 6.71862 7.3379 6.94363L6.62537 7.68428C6.52224 7.78741 6.47537 7.90929 6.47537 8.0593C6.47537 8.1343 6.48474 8.19993 6.50349 8.27493C6.53162 8.34993 6.55974 8.40618 6.57849 8.46244C6.74725 8.77182 7.03789 9.17497 7.4504 9.66249C7.8723 10.15 8.32232 10.6469 8.80984 11.1438C9.31611 11.6407 9.80363 12.1001 10.3005 12.522C10.788 12.9345 11.1912 13.2158 11.5099 13.3845C11.5568 13.4033 11.6131 13.4314 11.6787 13.4595C11.7537 13.4876 11.8287 13.497 11.9131 13.497C12.0725 13.497 12.1943 13.4408 12.2975 13.3376L13.01 12.6345C13.2444 12.4001 13.4694 12.222 13.685 12.1095C13.9007 11.9782 14.1163 11.9126 14.3507 11.9126C14.5288 11.9126 14.7163 11.9501 14.9226 12.0345C15.1288 12.1188 15.3445 12.2407 15.5789 12.4001L18.6821 14.6033C18.9259 14.7721 19.0946 14.969 19.1978 15.2033C19.2915 15.4377 19.3478 15.6721 19.3478 15.9346Z" stroke="#003B95" stroke-width="1.2" stroke-miterlimit="10"/>
</svg>
