<svg width="11" height="15" viewBox="0 0 11 15" fill="none" xmlns="http://www.w3.org/2000/svg">
<path d="M5.39291 0C2.4114 0 0 2.4114 0 5.39291C0 8.60555 3.40524 13.0354 4.80739 14.7226C5.11556 15.0924 5.67797 15.0924 5.98613 14.7226C7.38058 13.0354 10.7858 8.60555 10.7858 5.39291C10.7858 2.4114 8.37442 0 5.39291 0ZM5.39291 7.31895C4.32974 7.31895 3.46687 6.45609 3.46687 5.39291C3.46687 4.32974 4.32974 3.46687 5.39291 3.46687C6.45609 3.46687 7.31895 4.32974 7.31895 5.39291C7.31895 6.45609 6.45609 7.31895 5.39291 7.31895Z" fill="#003B95"/>
</svg>
